# Made by RuneLite Model-Dumper Plugin
mtllib Item Dramen staff 2026-08-01_11-35-39.mtl
o Item Dramen staff 2026-08-01_11-35-39
v -38 0 -40
v -62 0 -57
v -61 3 -59
v -36 3 -41
v -29 3 -38
v -31 0 -35
v -41 3 -38
v -62 3 -55
v -38 4 -40
v -62 5 -57
v -31 5 -35
v -32 3 -32
v -25 3 -27
v -21 5 -29
v -19 3 -32
v -21 0 -29
v -17 0 -25
v -20 3 -22
v -17 5 -25
v -14 3 -25
v -13 3 -20
v -15 1 -17
v -18 3 -14
v -15 4 -17
v -6 4 -12
v -3 3 -14
v -6 1 -12
v -6 3 -9
v 1 3 -3
v 1 5 -5
v 5 3 -8
v 1 0 -5
v 9 0 4
v 5 3 5
v 9 5 4
v 11 3 1
v 13 -1 8
v 12 3 11
v 13 6 8
v 17 3 6
v 22 3 11
v 28 -1 14
v 25 3 18
v 28 6 14
v 33 5 14
v 34 3 12
v 33 0 14
v 31 -1 16
v 30 -2 20
v 27 -1 26
v 25 3 26
v 27 6 26
v 30 7 20
v 31 6 16
v 35 5 15
v 38 3 14
v 35 0 15
v 35 0 17
v 34 0 20
v 35 -1 23
v 31 -2 24
v 38 -3 33
v 34 -2 37
v 31 3 37
v 34 7 35
v 31 7 24
v 35 6 23
v 33 5 19
v 35 5 17
v 36 3 19
v 36 3 22
v 43 3 29
v 41 -1 31
v 46 -1 34
v 43 -3 37
v 44 -1 43
v 33 1 45
v 30 4 43
v 31 9 41
v 38 9 33
v 42 7 31
v 46 6 34
v 46 3 32
v 51 3 38
v 52 0 39
v 49 0 40
v 46 1 42
v 47 3 42
v 38 3 47
v 32 3 51
v 30 7 50
v 31 11 50
v 37 13 41
v 43 8 37
v 49 5 40
v 52 4 39
v 51 3 43
v 48 4 42
v 40 7 42
v 35 13 48
v 38 7 50
v 35 4 55
v 32 8 56
v 35 11 55
v 35 11 54
v 39 12 59
v 38 8 58
v 35 6 59
v 35 8 60
v 35 11 59
v 39 9 62
usemtl c0
f 1 2 3
usemtl c1
f 1 3 4
usemtl c2
f 1 4 5
usemtl c3
f 1 5 6
usemtl c4
f 1 6 7
usemtl c5
f 1 7 2
usemtl c6
f 2 7 8
usemtl c7
f 8 7 9
usemtl c8
f 8 9 10
usemtl c9
f 10 9 4
usemtl c10
f 10 4 3
usemtl c11
f 11 5 4
usemtl c12
f 11 4 9
usemtl c8
f 11 9 12
usemtl c13
f 11 12 13
usemtl c14
f 11 13 14
usemtl c15
f 11 14 5
usemtl c16
f 5 14 15
usemtl c17
f 5 15 6
usemtl c11
f 6 15 16
usemtl c18
f 6 16 12
usemtl c19
f 6 12 7
usemtl c20
f 7 12 9
usemtl c21
f 16 13 12
usemtl c22
f 13 16 17
usemtl c23
f 13 17 18
usemtl c24
f 13 18 14
usemtl c25
f 14 18 19
usemtl c26
f 14 19 15
usemtl c10
f 15 19 20
usemtl c27
f 15 20 16
usemtl c28
f 16 20 17
usemtl c29
f 17 20 21
usemtl c30
f 17 21 22
usemtl c31
f 17 22 18
usemtl c32
f 18 22 23
usemtl c33
f 18 23 19
usemtl c34
f 19 23 24
usemtl c26
f 19 24 20
usemtl c35
f 20 24 21
usemtl c36
f 21 24 25
usemtl c37
f 21 25 26
usemtl c38
f 21 26 22
usemtl c0
f 22 26 27
usemtl c39
f 22 27 23
usemtl c40
f 23 27 28
usemtl c41
f 23 28 24
usemtl c42
f 24 28 25
usemtl c43
f 25 28 29
usemtl c44
f 25 29 30
usemtl c45
f 25 30 26
usemtl c46
f 26 30 31
usemtl c47
f 26 31 27
usemtl c48
f 27 31 32
usemtl c49
f 27 32 28
usemtl c50
f 28 32 29
usemtl c21
f 29 32 33
usemtl c51
f 29 33 34
usemtl c52
f 29 34 30
usemtl c21
f 30 34 35
usemtl c53
f 30 35 31
usemtl c30
f 31 35 36
usemtl c54
f 31 36 32
usemtl c55
f 32 36 33
usemtl c37
f 33 36 37
usemtl c56
f 33 37 38
usemtl c57
f 33 38 34
f 34 38 35
usemtl c58
f 35 38 39
usemtl c59
f 35 39 36
usemtl c60
f 36 39 40
usemtl c61
f 36 40 37
usemtl c62
f 37 40 41
usemtl c63
f 37 41 42
usemtl c64
f 37 42 43
usemtl c65
f 37 43 38
usemtl c66
f 38 43 39
usemtl c67
f 39 43 44
usemtl c68
f 39 44 40
usemtl c62
f 40 44 41
usemtl c69
f 41 44 45
usemtl c70
f 41 45 46
usemtl c71
f 41 46 47
usemtl c72
f 41 47 42
usemtl c62
f 42 47 48
usemtl c73
f 42 48 49
usemtl c64
f 42 49 43
usemtl c74
f 43 49 50
usemtl c75
f 43 50 51
usemtl c76
f 43 51 52
usemtl c65
f 43 52 53
usemtl c77
f 43 53 44
usemtl c78
f 44 53 54
usemtl c79
f 44 54 45
usemtl c80
f 45 54 55
usemtl c27
f 45 55 46
usemtl c81
f 46 55 56
usemtl c82
f 46 56 57
usemtl c83
f 46 57 47
usemtl c1
f 47 57 48
usemtl c84
f 48 57 58
usemtl c69
f 48 58 49
usemtl c27
f 49 58 59
usemtl c85
f 49 59 60
usemtl c86
f 49 60 61
usemtl c9
f 49 61 50
usemtl c87
f 50 61 62
usemtl c88
f 50 62 63
usemtl c6
f 50 63 51
usemtl c89
f 51 63 64
usemtl c90
f 51 64 52
usemtl c91
f 52 64 65
usemtl c92
f 52 65 66
usemtl c56
f 52 66 53
usemtl c93
f 53 66 67
usemtl c68
f 53 67 68
usemtl c94
f 53 68 69
usemtl c95
f 53 69 54
usemtl c96
f 54 69 55
usemtl c11
f 55 69 70
usemtl c79
f 55 70 56
usemtl c97
f 56 70 57
usemtl c84
f 57 70 58
usemtl c98
f 58 70 71
usemtl c2
f 58 71 59
usemtl c99
f 59 71 71
usemtl c70
f 59 71 60
usemtl c100
f 60 71 72
usemtl c71
f 60 72 73
usemtl c101
f 60 73 61
usemtl c97
f 61 73 62
usemtl c72
f 62 73 74
usemtl c63
f 62 74 75
usemtl c36
f 62 75 63
usemtl c102
f 63 75 76
usemtl c103
f 63 76 77
usemtl c6
f 63 77 64
usemtl c43
f 64 77 78
usemtl c104
f 64 78 65
usemtl c105
f 65 78 79
usemtl c74
f 65 79 80
usemtl c5
f 65 80 66
usemtl c106
f 66 80 67
usemtl c81
f 67 80 81
usemtl c107
f 67 81 71
usemtl c108
f 67 71 68
usemtl c109
f 68 71 71
usemtl c108
f 68 71 70
usemtl c60
f 68 70 69
usemtl c110
f 81 72 71
usemtl c111
f 72 81 82
usemtl c112
f 72 82 83
usemtl c71
f 72 83 73
f 73 83 74
f 74 83 84
usemtl c70
f 74 84 85
usemtl c69
f 74 85 75
usemtl c46
f 75 85 86
usemtl c12
f 75 86 76
usemtl c5
f 76 86 87
usemtl c56
f 76 87 88
usemtl c18
f 76 88 89
usemtl c88
f 76 89 90
usemtl c103
f 76 90 77
usemtl c65
f 77 90 78
usemtl c52
f 78 90 91
f 78 91 79
usemtl c113
f 79 91 92
usemtl c21
f 79 92 93
usemtl c114
f 79 93 80
usemtl c26
f 80 93 94
usemtl c115
f 80 94 81
usemtl c116
f 81 94 82
usemtl c117
f 82 94 95
usemtl c60
f 82 95 96
usemtl c118
f 82 96 83
usemtl c112
f 83 96 84
usemtl c119
f 84 96 97
usemtl c22
f 84 97 85
usemtl c65
f 85 97 86
usemtl c120
f 86 97 87
usemtl c121
f 87 97 88
usemtl c122
f 88 97 98
usemtl c32
f 88 98 89
usemtl c18
f 89 98 99
usemtl c123
f 89 99 100
usemtl c115
f 89 100 101
usemtl c124
f 89 101 102
usemtl c88
f 89 102 90
usemtl c105
f 90 102 91
usemtl c125
f 91 102 103
usemtl c126
f 91 103 92
usemtl c113
f 92 103 104
usemtl c127
f 92 104 100
usemtl c128
f 92 100 93
usemtl c129
f 93 100 94
usemtl c124
f 94 100 99
usemtl c130
f 94 99 95
usemtl c25
f 95 99 98
usemtl c131
f 95 98 97
usemtl c92
f 95 97 96
usemtl c132
f 104 105 100
usemtl c29
f 100 105 101
usemtl c133
f 101 105 106
usemtl c61
f 101 106 107
usemtl c134
f 101 107 102
usemtl c135
f 102 107 108
usemtl c65
f 102 108 103
usemtl c136
f 103 108 109
usemtl c137
f 103 109 104
usemtl c125
f 104 109 110
usemtl c74
f 104 110 105
usemtl c138
f 105 110 106
usemtl c139
f 106 110 111
usemtl c140
f 106 111 107
usemtl c45
f 107 111 108
usemtl c20
f 108 111 109
usemtl c75
f 109 111 110
