# Made by RuneLite Model-Dumper Plugin
mtllib Item Rune battleaxe 2026-07-31_23-09-20.mtl
o Item Rune battleaxe 2026-07-31_23-09-20
v 2 2 31
v 6 1 39
v 18 1 25
v -3 3 27
v 2 0 31
v -3 -1 27
v -2 -1 21
v 5 0 19
v 11 1 12
v 5 2 19
v -2 3 21
v -9 3 19
v -10 3 25
v -4 3 31
v -4 -1 31
v -28 1 16
v -23 1 33
v -16 2 28
v -14 2 16
v -17 1 6
v -14 0 16
v -9 -1 19
v -10 -1 25
v -16 0 28
v -11 -1 30
v -11 3 30
v 5 -1 -24
v 5 3 -24
v 1 3 -25
v 1 -1 -25
v 2 -1 -31
v 7 -1 -29
v 7 3 -29
v 2 3 -31
usemtl c0
f 1 2 3
usemtl c1
f 1 3 4
usemtl c2
f 1 4 5
usemtl c3
f 1 5 2
usemtl c0
f 2 5 3
usemtl c4
f 3 5 6
usemtl c5
f 3 6 7
usemtl c6
f 3 7 8
usemtl c7
f 3 8 9
usemtl c8
f 3 9 10
usemtl c9
f 3 10 11
usemtl c10
f 3 11 4
usemtl c11
f 4 11 12
usemtl c12
f 4 12 13
usemtl c13
f 4 13 14
usemtl c12
f 4 14 15
usemtl c14
f 4 15 6
usemtl c1
f 4 6 5
usemtl c15
f 7 11 10
usemtl c16
f 7 10 8
usemtl c17
f 8 10 9
usemtl c18
f 16 17 18
usemtl c19
f 16 18 13
usemtl c20
f 16 13 12
usemtl c5
f 16 12 19
usemtl c21
f 16 19 20
usemtl c16
f 16 20 21
usemtl c22
f 16 21 22
usemtl c23
f 16 22 23
usemtl c24
f 16 23 24
usemtl c25
f 16 24 17
usemtl c26
f 17 24 18
usemtl c27
f 18 24 13
usemtl c28
f 13 24 23
usemtl c29
f 13 23 25
usemtl c30
f 13 25 26
usemtl c31
f 13 26 14
usemtl c30
f 14 26 25
usemtl c32
f 14 25 15
usemtl c33
f 15 25 6
usemtl c34
f 6 25 23
usemtl c35
f 6 23 7
usemtl c36
f 7 23 22
usemtl c37
f 7 22 27
usemtl c38
f 7 27 28
usemtl c39
f 7 28 11
usemtl c40
f 11 28 29
usemtl c41
f 11 29 12
f 12 29 22
usemtl c42
f 12 22 21
usemtl c43
f 12 21 19
usemtl c44
f 19 21 20
usemtl c45
f 30 31 32
usemtl c46
f 30 32 27
usemtl c47
f 30 27 22
usemtl c48
f 30 22 29
usemtl c35
f 30 29 27
usemtl c49
f 27 29 28
usemtl c46
f 28 33 34
usemtl c50
f 28 34 29
usemtl c51
f 29 34 31
usemtl c52
f 29 31 30
usemtl c53
f 32 33 28
usemtl c54
f 32 28 27
usemtl c55
f 32 31 34
usemtl c56
f 32 34 33
