# Made by RuneLite Model-Dumper Plugin
mtllib Item Mist battlestaff 2026-08-01_11-47-47.mtl
o Item Mist battlestaff 2026-08-01_11-47-47
v 48 25 33
v 38 28 43
v 46 24 39
v 51 14 34
v 54 10 28
v 49 5 34
v 50 -1 32
v 46 -1 38
v 42 -8 37
v 41 -3 42
v 32 -5 47
v 34 0 48
v 27 4 52
v 32 6 51
v 27 12 51
v 31 13 49
v 27 17 49
v 35 17 44
v 30 20 47
v 36 22 41
v 39 15 38
v 39 18 34
v 42 9 31
v 38 9 36
v 38 3 34
v 33 2 37
v 30 -5 35
v 39 -3 27
v 36 -2 32
v 40 5 27
v 42 9 22
v 39 13 27
v 39 18 25
v 36 18 30
v 34 23 31
v 31 19 35
v 26 21 36
v 27 17 37
v 20 13 41
v 24 12 39
v 20 8 40
v 23 7 37
v 20 4 38
v 25 3 32
v 21 0 35
v 25 0 30
v 28 5 27
v 29 3 24
v 28 9 20
v 24 9 22
v 23 14 21
v 18 15 21
v -59 0 -58
v -47 3 -49
v -52 6 -49
v -50 9 -52
v -43 9 -53
v -43 5 -52
v -43 7 -45
v -48 9 -47
v -45 12 -48
v -39 12 -49
v -37 9 -45
v -41 8 -40
v -45 10 -43
v -43 15 -41
v -39 13 -43
v -36 9 -38
v -40 8 -36
v -44 10 -37
v -41 14 -34
v -35 13 -34
v -35 9 -34
v -36 4 -31
v -41 8 -28
v -40 12 -29
v -33 9 -29
v -31 6 -31
v -30 0 -28
v -31 2 -23
v -37 5 -25
v -33 8 -25
v -29 9 -27
v -25 5 -29
v -23 0 -26
v -22 3 -20
v -26 7 -21
v -24 9 -25
v -17 8 -26
v -18 3 -25
v -17 6 -19
v -21 9 -20
v -19 11 -23
v -13 10 -23
v -11 8 -18
v -16 8 -14
v -18 10 -17
v -15 15 -15
v -11 13 -17
v -10 9 -11
v -14 8 -10
v -17 12 -10
v -13 15 -8
v -9 13 -8
v -8 8 -7
v -11 5 -3
v -14 9 -3
v -12 13 -3
v -2 10 0
v 1 6 -3
v -4 3 1
v -8 6 5
v -7 11 2
v -1 9 5
v 2 9 2
v 9 9 1
v 7 5 4
v 2 3 2
v 2 5 7
v 9 9 10
v 4 10 7
v 8 13 4
v 12 10 3
v 13 9 8
v 12 10 13
v 7 13 9
v 12 17 11
v 16 13 9
v 16 11 16
v 13 10 16
v 11 14 16
v 14 18 16
v 17 15 17
v 16 9 19
v 15 9 22
v 12 13 24
v 15 17 20
v 19 13 23
v 19 9 22
v 19 5 27
v 19 8 31
v 15 9 28
v 19 12 28
v 23 10 26
v 23 6 24
v 29 9 31
v 43 17 45
v 42 9 43
v 37 9 51
v 40 14 50
v 48 19 51
v 54 17 45
v 48 14 43
v 48 9 40
v 43 2 45
v 40 4 50
v 41 9 57
v 42 17 56
v 54 17 56
v 57 14 50
v 59 9 51
v 56 9 43
v 54 2 45
v 48 4 43
v 48 0 51
v 42 2 56
v 48 9 63
v 49 14 58
v 57 9 58
v 54 2 56
v 57 4 50
v 49 4 58
v 37 28 42
v 48 25 32
v 43 24 37
v 48 14 33
v 53 10 27
v 48 5 33
v 49 -1 31
v 44 -1 37
v 41 -8 37
v 40 -3 42
v 33 -5 46
v 32 0 47
v 25 4 51
v 30 6 50
v 25 12 51
v 30 13 47
v 27 17 48
v 34 17 42
v 29 20 44
v 34 22 40
v 38 15 37
v 38 18 33
v 41 9 30
v 38 9 34
v 36 3 33
v 32 2 36
v 37 -3 26
v 29 -5 32
v 35 -2 30
v 39 5 26
v 41 9 21
v 39 18 24
v 35 18 29
v 32 23 30
v 30 19 33
v 25 21 36
v 26 17 36
v 19 13 40
v 23 12 38
v 18 8 39
v 22 7 36
v 18 4 36
v 24 3 31
v 20 0 34
v 24 0 29
v 27 5 26
v 28 3 22
v 27 9 19
v 22 9 21
v 21 14 20
v 16 15 21
usemtl c0
f 1 2 3
usemtl c1
f 1 3 4
usemtl c2
f 1 4 5
usemtl c3
f 5 4 6
usemtl c4
f 5 6 7
usemtl c5
f 7 6 8
usemtl c6
f 7 8 9
usemtl c7
f 9 8 10
usemtl c8
f 9 10 11
usemtl c9
f 11 10 12
usemtl c10
f 11 12 13
usemtl c11
f 13 12 14
usemtl c12
f 13 14 15
usemtl c13
f 15 14 16
usemtl c14
f 15 16 17
usemtl c15
f 17 16 18
usemtl c16
f 17 18 19
usemtl c17
f 19 18 20
usemtl c18
f 20 18 21
usemtl c19
f 20 21 22
usemtl c20
f 22 21 23
usemtl c21
f 23 21 24
usemtl c22
f 23 24 25
usemtl c8
f 25 24 26
usemtl c21
f 27 28 29
usemtl c1
f 29 28 30
usemtl c23
f 30 28 31
usemtl c24
f 30 31 32
usemtl c25
f 32 31 33
usemtl c26
f 32 33 34
usemtl c22
f 34 33 35
usemtl c27
f 34 35 36
usemtl c28
f 36 35 37
usemtl c29
f 36 37 38
usemtl c30
f 38 37 39
usemtl c31
f 38 39 40
usemtl c32
f 40 39 41
usemtl c33
f 40 41 42
usemtl c34
f 42 41 43
usemtl c35
f 42 43 44
usemtl c22
f 44 43 45
usemtl c0
f 44 45 46
usemtl c36
f 44 46 47
usemtl c37
f 47 46 48
usemtl c0
f 47 48 49
usemtl c38
f 47 49 50
usemtl c39
f 50 49 51
usemtl c40
f 50 51 52
usemtl c41
f 53 54 55
usemtl c42
f 53 55 56
usemtl c43
f 53 56 57
usemtl c44
f 53 57 58
usemtl c45
f 53 58 54
usemtl c46
f 54 58 59
usemtl c47
f 54 59 60
usemtl c48
f 54 60 55
usemtl c49
f 55 60 56
usemtl c50
f 56 60 61
usemtl c51
f 56 61 57
usemtl c52
f 57 61 62
usemtl c53
f 57 62 63
usemtl c54
f 57 63 58
usemtl c55
f 58 63 59
usemtl c56
f 59 63 64
usemtl c57
f 59 64 65
usemtl c58
f 59 65 60
f 60 65 61
usemtl c59
f 61 65 66
usemtl c60
f 61 66 67
usemtl c61
f 61 67 62
usemtl c62
f 62 67 63
usemtl c63
f 63 67 68
usemtl c64
f 63 68 64
usemtl c65
f 64 68 69
usemtl c66
f 64 69 70
usemtl c67
f 64 70 65
usemtl c68
f 65 70 66
usemtl c69
f 66 70 71
usemtl c70
f 66 71 72
usemtl c71
f 66 72 67
usemtl c72
f 67 72 68
usemtl c73
f 68 72 73
usemtl c74
f 68 73 69
usemtl c75
f 69 73 74
usemtl c76
f 69 74 75
usemtl c77
f 69 75 70
usemtl c58
f 70 75 76
usemtl c78
f 70 76 71
usemtl c79
f 71 76 72
usemtl c80
f 72 76 77
usemtl c81
f 72 77 73
usemtl c82
f 73 77 78
usemtl c83
f 73 78 74
usemtl c84
f 74 78 79
usemtl c85
f 74 79 80
usemtl c77
f 74 80 81
f 74 81 75
usemtl c86
f 75 81 82
usemtl c87
f 75 82 76
usemtl c86
f 76 82 77
usemtl c88
f 77 82 83
usemtl c89
f 77 83 78
usemtl c81
f 78 83 84
usemtl c90
f 78 84 79
usemtl c83
f 79 84 85
usemtl c91
f 79 85 86
usemtl c92
f 79 86 80
usemtl c93
f 80 86 87
usemtl c94
f 80 87 82
usemtl c86
f 80 82 81
usemtl c95
f 82 87 83
usemtl c96
f 83 87 88
usemtl c97
f 83 88 84
usemtl c98
f 84 88 89
usemtl c99
f 84 89 90
usemtl c62
f 84 90 85
usemtl c55
f 85 90 86
usemtl c100
f 86 90 91
usemtl c101
f 86 91 92
usemtl c86
f 86 92 87
usemtl c102
f 87 92 88
usemtl c78
f 88 92 93
usemtl c103
f 88 93 89
usemtl c104
f 89 93 94
usemtl c54
f 89 94 95
usemtl c105
f 89 95 90
usemtl c103
f 90 95 91
usemtl c43
f 91 95 96
usemtl c106
f 91 96 97
usemtl c107
f 91 97 92
usemtl c108
f 92 97 93
usemtl c48
f 93 97 98
usemtl c109
f 93 98 99
usemtl c89
f 93 99 94
usemtl c110
f 94 99 95
usemtl c111
f 95 99 100
usemtl c112
f 95 100 96
usemtl c109
f 96 100 101
usemtl c113
f 96 101 102
usemtl c86
f 96 102 97
usemtl c114
f 97 102 98
usemtl c115
f 98 102 103
usemtl c45
f 98 103 104
usemtl c116
f 98 104 99
usemtl c117
f 99 104 100
usemtl c118
f 100 104 105
usemtl c119
f 100 105 101
usemtl c103
f 101 105 106
usemtl c120
f 101 106 107
usemtl c121
f 101 107 102
usemtl c122
f 102 107 108
usemtl c123
f 102 108 103
usemtl c46
f 103 108 104
usemtl c124
f 104 108 109
usemtl c125
f 104 109 105
usemtl c126
f 105 109 110
usemtl c127
f 105 110 111
usemtl c128
f 105 111 106
usemtl c129
f 106 111 112
usemtl c130
f 106 112 107
usemtl c131
f 107 112 108
usemtl c132
f 108 112 113
usemtl c133
f 108 113 109
usemtl c60
f 109 113 114
usemtl c134
f 109 114 115
usemtl c97
f 109 115 110
usemtl c135
f 110 115 116
usemtl c136
f 110 116 117
usemtl c137
f 110 117 118
usemtl c98
f 110 118 111
usemtl c71
f 111 118 119
usemtl c113
f 111 119 112
usemtl c138
f 112 119 114
f 112 114 113
usemtl c139
f 118 117 119
usemtl c140
f 119 117 120
usemtl c123
f 119 120 121
f 119 121 114
usemtl c59
f 114 121 115
usemtl c141
f 115 121 122
usemtl c55
f 115 122 116
usemtl c119
f 116 122 123
usemtl c142
f 116 123 124
usemtl c143
f 116 124 117
usemtl c144
f 117 124 120
usemtl c145
f 120 124 125
usemtl c146
f 120 125 126
usemtl c147
f 120 126 121
usemtl c148
f 121 126 122
usemtl c149
f 122 126 127
usemtl c65
f 122 127 128
usemtl c98
f 122 128 123
usemtl c150
f 123 128 124
usemtl c142
f 124 128 129
usemtl c151
f 124 129 125
usemtl c152
f 125 129 130
usemtl c153
f 125 130 131
usemtl c154
f 125 131 126
usemtl c121
f 126 131 127
usemtl c155
f 127 131 132
usemtl c124
f 127 132 133
usemtl c156
f 127 133 128
usemtl c157
f 128 133 129
usemtl c158
f 129 133 134
usemtl c159
f 129 134 130
usemtl c61
f 130 134 135
usemtl c121
f 130 135 136
usemtl c160
f 130 136 131
usemtl c161
f 131 136 137
usemtl c113
f 131 137 132
usemtl c43
f 132 137 133
usemtl c162
f 133 137 138
usemtl c158
f 133 138 134
f 134 138 139
usemtl c163
f 134 139 135
usemtl c164
f 135 139 140
usemtl c80
f 135 140 141
usemtl c165
f 135 141 142
usemtl c166
f 135 142 136
usemtl c121
f 136 142 143
usemtl c59
f 136 143 137
usemtl c80
f 137 143 138
usemtl c109
f 138 143 144
usemtl c167
f 138 144 139
f 139 144 145
usemtl c168
f 139 145 140
usemtl c64
f 140 145 146
usemtl c169
f 140 146 141
usemtl c92
f 141 146 143
usemtl c170
f 141 143 142
usemtl c43
f 143 146 144
usemtl c81
f 144 146 145
usemtl c171
f 147 148 149
usemtl c172
f 147 149 150
usemtl c173
f 147 150 151
usemtl c174
f 147 151 152
usemtl c175
f 147 152 153
usemtl c176
f 147 153 148
usemtl c177
f 148 153 154
usemtl c178
f 148 154 155
usemtl c179
f 148 155 156
usemtl c180
f 148 156 149
usemtl c181
f 149 156 157
usemtl c182
f 149 157 158
usemtl c183
f 149 158 150
usemtl c184
f 150 158 151
usemtl c185
f 151 158 159
usemtl c186
f 151 159 160
usemtl c187
f 151 160 152
usemtl c188
f 152 160 161
usemtl c189
f 152 161 162
usemtl c190
f 152 162 153
usemtl c191
f 153 162 154
usemtl c192
f 154 162 163
usemtl c193
f 154 163 164
usemtl c194
f 154 164 155
usemtl c195
f 155 164 165
usemtl c196
f 155 165 166
usemtl c197
f 155 166 156
usemtl c198
f 156 166 157
usemtl c199
f 157 166 167
usemtl c200
f 157 167 168
usemtl c201
f 157 168 158
usemtl c202
f 158 168 159
usemtl c203
f 159 168 167
usemtl c173
f 159 167 169
usemtl c204
f 159 169 160
usemtl c205
f 160 169 161
usemtl c206
f 161 169 170
usemtl c207
f 161 170 171
usemtl c208
f 161 171 162
usemtl c209
f 162 171 163
usemtl c210
f 163 171 170
usemtl c211
f 163 170 165
usemtl c212
f 163 165 164
usemtl c213
f 172 170 169
usemtl c214
f 172 169 167
usemtl c215
f 172 167 166
usemtl c216
f 172 166 165
usemtl c217
f 172 165 170
usemtl c218
f 173 174 175
usemtl c219
f 175 174 176
usemtl c34
f 176 174 177
usemtl c220
f 176 177 178
usemtl c221
f 178 177 179
usemtl c222
f 178 179 180
f 180 179 181
usemtl c223
f 180 181 182
usemtl c224
f 182 181 183
usemtl c225
f 182 183 184
usemtl c226
f 184 183 185
usemtl c227
f 184 185 186
usemtl c228
f 186 185 187
usemtl c226
f 186 187 188
usemtl c21
f 188 187 189
usemtl c229
f 188 189 190
usemtl c230
f 190 189 191
usemtl c231
f 190 191 192
usemtl c232
f 190 192 193
usemtl c233
f 193 192 194
usemtl c234
f 193 194 195
usemtl c235
f 193 195 196
usemtl c9
f 196 195 197
usemtl c236
f 196 197 198
usemtl c237
f 199 200 201
usemtl c238
f 199 201 202
usemtl c239
f 199 202 203
usemtl c240
f 203 202 32
usemtl c241
f 203 32 204
usemtl c232
f 204 32 205
usemtl c242
f 204 205 206
usemtl c243
f 206 205 207
usemtl c244
f 206 207 208
usemtl c36
f 208 207 209
usemtl c1
f 208 209 210
usemtl c245
f 210 209 211
usemtl c246
f 210 211 212
usemtl c247
f 212 211 213
usemtl c248
f 212 213 214
usemtl c224
f 214 213 215
usemtl c249
f 214 215 216
usemtl c250
f 216 215 217
usemtl c251
f 217 215 218
usemtl c252
f 217 218 219
usemtl c253
f 219 218 220
usemtl c224
f 220 218 221
usemtl c254
f 220 221 222
usemtl c255
f 222 221 223
