# Made by RuneLite Model-Dumper Plugin
mtllib Item Dust battlestaff 2026-08-01_11-48-01.mtl
o Item Dust battlestaff 2026-08-01_11-48-01
v -62 10 -62
v -40 10 -36
v -39 14 -38
v -35 12 -41
v -37 8 -39
v -13 6 -15
v -18 10 -11
v -13 16 -15
v -10 10 -19
v -6 10 -2
v -4 14 -4
v -1 12 -7
v -3 7 -5
v 4 9 -3
v 0 8 1
v -1 13 3
v 3 14 -1
v 20 10 10
v 16 6 14
v 12 11 18
v 16 16 14
v 42 7 34
v 36 7 39
v 36 14 39
v 42 14 34
v 46 5 35
v 44 9 28
v 46 12 35
v 38 8 41
v 41 -1 38
v 48 -1 35
v 50 -1 31
v 45 5 26
v 36 5 29
v 36 15 29
v 46 12 26
v 50 18 30
v 48 18 35
v 42 15 36
v 36 14 40
v 34 9 46
v 36 3 46
v 36 -2 43
v 36 -1 35
v 37 -8 35
v 46 -8 35
v 45 -8 26
v 47 -1 25
v 41 -1 21
v 36 -1 25
v 33 -1 31
v 29 -2 35
v 26 3 35
v 31 11 35
v 27 15 33
v 31 23 30
v 36 23 31
v 37 24 25
v 41 18 21
v 48 18 24
v 46 24 26
v 46 24 34
v 36 24 35
v 38 22 44
v 32 20 46
v 29 13 39
v 27 9 46
v 32 1 49
v 29 -5 43
v 37 -8 26
v 41 -9 31
v 22 20 37
v 26 22 32
v 26 28 35
v 35 29 34
v 42 26 30
v 25 20 42
v 26 27 42
v 35 28 42
v 30 30 38
v 23 1 40
v 27 0 46
v 44 16 49
v 46 19 44
v 45 10 42
v 40 10 49
v 45 10 58
v 47 19 55
v 52 21 49
v 52 16 41
v 51 10 39
v 52 6 41
v 46 4 44
v 44 6 49
v 47 4 55
v 52 6 58
v 52 10 60
v 52 16 58
v 57 19 55
v 57 19 44
v 59 10 43
v 57 4 44
v 52 1 49
v 57 4 55
v 59 10 57
v 63 10 49
v 60 16 49
v 60 6 49
v 43 29 44
v 42 26 44
v 40 26 46
v 43 30 49
v 45 31 46
v 47 30 44
v 45 26 42
v 43 24 44
v 43 23 49
v 41 26 49
v 45 26 52
v 47 29 49
v 50 26 47
v 48 26 44
v 47 23 44
v 45 22 46
v 47 24 49
v 49 26 49
v 32 1 53
v 34 1 49
v 35 -4 50
v 32 -3 55
v 34 1 59
v 33 4 56
v 36 6 52
v 36 1 48
v 39 -3 48
v 40 -4 52
v 37 -7 54
v 36 -4 56
v 36 -4 60
v 39 0 60
v 37 3 60
v 36 6 57
v 38 7 54
v 39 4 49
v 42 1 49
v 43 -4 53
v 40 -4 57
v 42 -1 59
v 41 4 58
v 44 3 54
v 40 6 52
v 44 0 56
v 54 9 32
v 52 6 31
v 50 6 35
v 53 10 35
v 55 10 34
v 58 10 32
v 55 6 30
v 54 3 32
v 53 2 35
v 52 6 37
v 56 6 39
v 58 9 35
v 60 6 35
v 58 6 31
v 58 2 32
v 55 1 34
v 58 3 35
v 59 6 37
usemtl c0
f 1 2 3
usemtl c1
f 1 3 4
usemtl c2
f 1 4 5
usemtl c3
f 1 5 2
usemtl c4
f 2 5 6
usemtl c5
f 2 6 3
usemtl c6
f 3 6 7
usemtl c7
f 3 7 8
usemtl c8
f 3 8 4
usemtl c9
f 4 8 5
usemtl c10
f 5 8 9
usemtl c11
f 5 9 6
usemtl c12
f 6 9 10
usemtl c13
f 6 10 7
usemtl c14
f 7 10 11
usemtl c15
f 7 11 12
usemtl c16
f 7 12 8
usemtl c17
f 8 12 9
usemtl c18
f 9 12 13
usemtl c19
f 9 13 10
usemtl c20
f 10 13 14
usemtl c21
f 10 14 15
usemtl c22
f 10 15 16
usemtl c23
f 10 16 11
usemtl c24
f 11 16 12
usemtl c1
f 12 16 17
usemtl c25
f 12 17 13
usemtl c26
f 13 17 14
usemtl c27
f 14 17 18
usemtl c28
f 14 18 15
usemtl c29
f 15 18 19
usemtl c30
f 15 19 20
usemtl c31
f 15 20 16
usemtl c32
f 16 20 17
usemtl c33
f 17 20 21
usemtl c34
f 17 21 18
usemtl c18
f 18 21 22
usemtl c35
f 18 22 19
usemtl c36
f 19 22 23
usemtl c37
f 19 23 24
usemtl c38
f 19 24 20
usemtl c39
f 20 24 21
usemtl c40
f 21 24 25
usemtl c41
f 21 25 22
usemtl c42
f 26 27 28
usemtl c43
f 26 28 29
usemtl c44
f 26 29 30
usemtl c45
f 26 30 31
usemtl c46
f 26 31 32
usemtl c47
f 26 32 33
usemtl c48
f 26 33 27
usemtl c49
f 27 33 34
usemtl c50
f 27 34 35
usemtl c51
f 27 35 36
usemtl c52
f 27 36 28
usemtl c53
f 28 36 37
usemtl c54
f 28 37 38
usemtl c55
f 28 38 39
usemtl c56
f 28 39 29
usemtl c57
f 29 39 40
usemtl c58
f 29 40 41
usemtl c59
f 29 41 42
usemtl c60
f 29 42 43
usemtl c45
f 29 43 30
usemtl c61
f 30 43 44
usemtl c62
f 30 44 45
usemtl c63
f 30 45 46
usemtl c64
f 30 46 31
usemtl c65
f 31 46 32
usemtl c66
f 32 46 47
usemtl c67
f 32 47 48
usemtl c68
f 32 48 33
usemtl c69
f 33 48 49
usemtl c70
f 33 49 34
usemtl c71
f 34 49 50
usemtl c72
f 34 50 51
usemtl c73
f 34 51 52
usemtl c74
f 34 52 53
usemtl c75
f 34 53 54
usemtl c76
f 34 54 35
usemtl c77
f 35 54 55
usemtl c78
f 35 55 56
usemtl c79
f 35 56 57
usemtl c80
f 35 57 58
usemtl c81
f 35 58 59
usemtl c82
f 35 59 36
usemtl c83
f 36 59 60
usemtl c84
f 36 60 37
usemtl c85
f 37 60 61
usemtl c86
f 37 61 62
usemtl c87
f 37 62 38
usemtl c88
f 38 62 39
usemtl c89
f 39 62 63
usemtl c90
f 39 63 40
usemtl c91
f 40 63 64
usemtl c92
f 40 64 65
usemtl c93
f 40 65 66
usemtl c94
f 40 66 67
usemtl c95
f 40 67 41
usemtl c96
f 41 67 68
usemtl c97
f 41 68 42
usemtl c98
f 42 68 43
usemtl c99
f 43 68 69
usemtl c100
f 43 69 44
usemtl c101
f 44 69 52
usemtl c102
f 44 52 51
usemtl c62
f 44 51 45
usemtl c103
f 45 51 70
usemtl c104
f 45 70 71
usemtl c105
f 45 71 46
usemtl c106
f 46 71 47
usemtl c107
f 47 71 70
usemtl c108
f 47 70 49
usemtl c85
f 47 49 48
usemtl c109
f 54 53 66
usemtl c110
f 54 66 55
usemtl c111
f 55 66 72
usemtl c101
f 55 72 73
usemtl c112
f 55 73 56
usemtl c113
f 56 73 74
usemtl c114
f 56 74 75
usemtl c115
f 56 75 57
usemtl c116
f 57 75 63
usemtl c117
f 57 63 58
usemtl c118
f 58 63 76
usemtl c119
f 58 76 61
usemtl c120
f 58 61 59
usemtl c121
f 59 61 60
usemtl c76
f 49 70 50
usemtl c100
f 50 70 51
usemtl c122
f 61 76 62
usemtl c123
f 62 76 63
usemtl c124
f 72 77 78
usemtl c125
f 72 78 74
usemtl c91
f 72 74 73
usemtl c126
f 72 66 77
usemtl c127
f 77 66 65
usemtl c128
f 77 65 78
usemtl c129
f 78 65 79
usemtl c130
f 78 79 80
usemtl c131
f 78 80 74
usemtl c132
f 74 80 75
usemtl c110
f 75 80 79
usemtl c72
f 75 79 63
usemtl c133
f 63 79 64
usemtl c134
f 64 79 65
usemtl c135
f 53 81 67
usemtl c136
f 53 67 66
usemtl c137
f 52 81 53
usemtl c138
f 81 52 69
usemtl c95
f 81 69 82
usemtl c139
f 81 82 67
usemtl c140
f 67 82 68
usemtl c141
f 68 82 69
usemtl c142
f 83 84 85
usemtl c143
f 83 85 86
usemtl c144
f 83 86 87
usemtl c145
f 83 87 88
usemtl c146
f 83 88 84
usemtl c147
f 84 88 89
usemtl c148
f 84 89 90
usemtl c149
f 84 90 91
usemtl c150
f 84 91 85
usemtl c151
f 85 91 92
usemtl c152
f 85 92 93
usemtl c153
f 85 93 86
usemtl c154
f 86 93 94
usemtl c155
f 86 94 95
usemtl c156
f 86 95 87
usemtl c157
f 87 95 96
usemtl c158
f 87 96 97
usemtl c159
f 87 97 88
usemtl c160
f 88 97 98
usemtl c161
f 88 98 89
usemtl c162
f 89 98 99
usemtl c163
f 89 99 100
usemtl c164
f 89 100 90
usemtl c165
f 90 100 91
usemtl c166
f 91 100 101
usemtl c167
f 91 101 92
f 92 101 102
usemtl c168
f 92 102 93
usemtl c169
f 93 102 103
usemtl c170
f 93 103 94
usemtl c171
f 94 103 95
usemtl c172
f 95 103 104
usemtl c173
f 95 104 96
usemtl c143
f 96 104 97
usemtl c174
f 97 104 105
usemtl c143
f 97 105 98
usemtl c175
f 98 105 99
usemtl c176
f 99 105 106
usemtl c177
f 99 106 107
f 99 107 100
usemtl c166
f 100 107 101
f 101 107 106
f 101 106 102
usemtl c178
f 102 106 108
usemtl c168
f 102 108 103
usemtl c179
f 103 108 104
usemtl c180
f 104 108 105
usemtl c181
f 105 108 106
usemtl c182
f 109 110 111
usemtl c183
f 109 111 112
usemtl c184
f 109 112 113
usemtl c170
f 109 113 114
usemtl c179
f 109 114 115
usemtl c185
f 109 115 110
usemtl c186
f 110 115 116
usemtl c154
f 110 116 111
usemtl c161
f 111 116 117
usemtl c187
f 111 117 118
usemtl c188
f 111 118 112
usemtl c189
f 112 118 119
usemtl c190
f 112 119 120
usemtl c184
f 112 120 113
usemtl c170
f 113 120 114
usemtl c179
f 114 120 121
usemtl c191
f 114 121 122
f 114 122 115
usemtl c178
f 115 122 123
usemtl c181
f 115 123 116
usemtl c192
f 116 123 124
usemtl c142
f 116 124 117
f 117 124 125
usemtl c193
f 117 125 119
usemtl c194
f 117 119 118
usemtl c143
f 120 119 126
usemtl c185
f 120 126 121
usemtl c186
f 121 126 125
usemtl c181
f 121 125 123
usemtl c178
f 121 123 122
usemtl c173
f 119 125 126
usemtl c192
f 125 124 123
usemtl c195
f 127 128 129
usemtl c156
f 127 129 130
usemtl c196
f 127 130 131
usemtl c197
f 127 131 132
usemtl c145
f 127 132 128
usemtl c198
f 128 132 133
usemtl c199
f 128 133 134
usemtl c200
f 128 134 135
usemtl c201
f 128 135 129
usemtl c202
f 129 135 136
usemtl c186
f 129 136 137
usemtl c203
f 129 137 130
usemtl c204
f 130 137 138
usemtl c158
f 130 138 139
usemtl c205
f 130 139 131
usemtl c196
f 131 139 140
usemtl c206
f 131 140 141
usemtl c207
f 131 141 132
usemtl c208
f 132 141 142
usemtl c209
f 132 142 133
usemtl c210
f 133 142 143
usemtl c211
f 133 143 144
usemtl c212
f 133 144 134
usemtl c213
f 134 144 135
usemtl c165
f 135 144 145
usemtl c166
f 135 145 136
f 136 145 146
usemtl c214
f 136 146 137
usemtl c215
f 137 146 147
usemtl c216
f 137 147 138
usemtl c217
f 138 147 139
usemtl c218
f 139 147 148
usemtl c219
f 139 148 140
usemtl c220
f 140 148 141
usemtl c221
f 141 148 149
usemtl c222
f 141 149 142
usemtl c210
f 142 149 143
usemtl c211
f 143 149 150
usemtl c179
f 143 150 151
f 143 151 144
usemtl c223
f 144 151 145
f 145 151 150
usemtl c165
f 145 150 146
usemtl c224
f 146 150 152
usemtl c225
f 146 152 147
usemtl c199
f 147 152 148
usemtl c226
f 148 152 149
usemtl c227
f 149 152 150
usemtl c195
f 153 154 155
usemtl c157
f 153 155 156
usemtl c228
f 153 156 157
usemtl c229
f 153 157 158
usemtl c230
f 153 158 159
usemtl c231
f 153 159 154
usemtl c232
f 154 159 160
usemtl c233
f 154 160 155
usemtl c184
f 155 160 161
usemtl c208
f 155 161 162
usemtl c234
f 155 162 156
usemtl c235
f 156 162 163
usemtl c157
f 156 163 164
usemtl c146
f 156 164 157
usemtl c236
f 157 164 158
usemtl c237
f 158 164 165
usemtl c238
f 158 165 166
usemtl c239
f 158 166 159
usemtl c240
f 159 166 167
usemtl c241
f 159 167 160
usemtl c232
f 160 167 168
usemtl c216
f 160 168 161
usemtl c147
f 161 168 169
usemtl c242
f 161 169 163
usemtl c205
f 161 163 162
usemtl c143
f 164 163 170
usemtl c243
f 164 170 165
usemtl c148
f 165 170 169
usemtl c244
f 165 169 167
usemtl c178
f 165 167 166
usemtl c203
f 163 169 170
usemtl c212
f 169 168 167
