# Made by RuneLite Model-Dumper Plugin
mtllib Item Staff of earth 2026-07-31_20-55-34.mtl
o Item Staff of earth 2026-07-31_20-55-34
v 29 -3 33
v 45 -3 48
v 45 4 47
v 30 0 34
v 19 3 24
v 21 0 20
v 30 -5 32
v 46 -4 45
v 51 -2 49
v 49 -2 50
v 48 0 50
v 46 4 44
v 31 0 32
v 23 6 19
v 21 8 22
v -6 0 -1
v -5 0 -4
v -4 2 -4
v 50 1 48
v 58 1 50
v 59 -5 51
v 51 -3 55
v 52 4 55
v -6 3 -2
v -29 3 -23
v -29 2 -25
v -28 5 -26
v -30 6 -24
v -59 8 -50
v -61 2 -48
v -56 1 -54
v -56 6 -55
v 68 1 51
v 66 -7 54
v 63 -10 60
v 59 -8 62
v 53 -3 66
v 58 4 63
v 62 9 57
v 69 1 52
v 70 -7 55
v 63 -10 61
v 59 -8 66
v 59 -2 68
v 62 4 66
v 68 10 62
v 65 6 52
v 72 6 56
v 72 3 61
v 70 -5 62
v 66 -3 68
v 68 4 66
usemtl c0
f 1 2 3
usemtl c1
f 1 3 4
usemtl c2
f 1 4 5
usemtl c3
f 1 5 6
usemtl c4
f 1 6 7
usemtl c5
f 1 7 2
usemtl c6
f 2 7 8
usemtl c7
f 2 8 9
usemtl c8
f 2 9 10
usemtl c9
f 2 10 3
usemtl c10
f 3 10 11
usemtl c11
f 3 11 12
usemtl c12
f 3 12 13
usemtl c13
f 3 13 4
usemtl c14
f 4 13 14
usemtl c15
f 4 14 15
usemtl c16
f 4 15 5
usemtl c17
f 5 15 16
usemtl c18
f 5 16 6
usemtl c19
f 6 16 17
usemtl c20
f 6 17 18
usemtl c21
f 6 18 14
usemtl c22
f 6 14 7
usemtl c23
f 7 14 13
usemtl c24
f 7 13 8
usemtl c25
f 8 13 12
usemtl c26
f 8 12 19
usemtl c27
f 8 19 9
usemtl c28
f 9 19 20
usemtl c29
f 9 20 21
usemtl c30
f 9 21 10
usemtl c31
f 10 21 22
usemtl c32
f 10 22 11
usemtl c33
f 11 22 23
usemtl c34
f 11 23 19
usemtl c7
f 11 19 12
usemtl c35
f 15 24 16
usemtl c36
f 16 24 25
usemtl c37
f 16 25 17
usemtl c38
f 17 25 26
usemtl c39
f 17 26 27
usemtl c40
f 17 27 18
usemtl c41
f 18 27 28
usemtl c42
f 18 28 24
usemtl c43
f 18 24 14
usemtl c44
f 14 24 15
usemtl c45
f 28 29 30
usemtl c46
f 28 30 25
usemtl c35
f 28 25 24
usemtl c47
f 26 31 32
usemtl c48
f 26 32 27
usemtl c49
f 27 32 29
usemtl c50
f 27 29 28
usemtl c51
f 30 31 26
usemtl c52
f 30 26 25
usemtl c53
f 20 33 34
usemtl c54
f 20 34 21
usemtl c55
f 21 34 35
usemtl c56
f 21 35 22
usemtl c57
f 22 35 36
usemtl c58
f 22 36 37
usemtl c59
f 22 37 38
usemtl c60
f 22 38 23
usemtl c61
f 23 38 39
usemtl c62
f 23 39 20
usemtl c63
f 23 20 19
usemtl c64
f 34 33 40
usemtl c65
f 34 40 41
usemtl c66
f 34 41 42
usemtl c67
f 34 42 35
usemtl c68
f 35 42 36
usemtl c69
f 36 42 43
usemtl c70
f 36 43 44
usemtl c71
f 36 44 37
usemtl c72
f 37 44 38
usemtl c73
f 38 44 45
usemtl c74
f 38 45 46
usemtl c75
f 38 46 39
usemtl c76
f 39 46 47
usemtl c55
f 39 47 20
usemtl c77
f 20 47 33
usemtl c53
f 33 47 40
usemtl c78
f 40 47 48
usemtl c79
f 40 48 49
usemtl c80
f 40 49 41
usemtl c81
f 41 49 50
usemtl c82
f 41 50 42
usemtl c83
f 42 50 43
usemtl c84
f 43 50 51
usemtl c85
f 43 51 44
usemtl c86
f 44 51 45
usemtl c87
f 45 51 52
usemtl c88
f 45 52 46
usemtl c89
f 46 52 48
usemtl c90
f 46 48 47
usemtl c91
f 50 49 52
usemtl c92
f 50 52 51
usemtl c93
f 52 49 48
usemtl c94
f 31 30 29
usemtl c43
f 31 29 32
