# Made by RuneLite Model-Dumper Plugin
mtllib Item Rune chainbody 2026-07-31_20-54-27.mtl
o Item Rune chainbody 2026-07-31_20-54-27
v -16 5 -18
v 0 4 -18
v 7 1 -22
v -6 2 -22
v -7 0 -26
v -16 3 -21
v -16 3 -18
v -17 7 -1
v 0 7 -1
v 17 4 -18
v 17 2 -21
v 6 0 -26
v 18 6 -1
v 0 1 27
v 16 0 27
v 16 -1 27
v 18 2 -1
v -15 1 27
v -15 0 27
v 0 5 10
v 4 3 14
v 4 4 11
v 2 5 8
v 0 5 5
v -1 5 8
v -3 5 11
v -3 3 14
v -7 5 10
v -5 5 8
v -7 5 5
v -9 5 8
v -11 5 11
v -11 4 14
v -15 5 10
v -13 5 8
v -15 6 5
v -11 7 2
v 8 4 10
v 6 5 8
v 8 5 5
v 4 6 2
v 12 3 14
v 12 4 11
v 10 4 8
v 12 6 2
v 16 4 10
v 14 4 8
v 16 5 5
v -3 6 2
v 0 5 -13
v 4 5 -9
v 4 5 -12
v 2 4 -15
v -1 4 -15
v -3 5 -12
v -3 6 -9
v -7 5 -13
v -5 4 -15
v -7 5 -18
v -9 4 -15
v -11 5 -12
v -11 6 -9
v -15 5 -13
v -13 4 -15
v -15 5 -18
v -11 3 -21
v 8 5 -13
v 6 4 -15
v 8 4 -18
v 4 2 -21
v 12 5 -9
v 12 4 -12
v 10 4 -15
v 12 2 -20
v 16 4 -13
v 14 4 -15
v 16 4 -18
v -3 3 -21
v 4 6 0
v 2 7 -3
v 0 6 -6
v -1 7 -3
v -3 7 0
v -7 7 -1
v -5 7 -3
v -7 6 -6
v -9 7 -3
v -11 7 0
v -15 7 -1
v -13 7 -3
v -15 7 -6
v 8 6 -1
v 6 7 -3
v 8 6 -6
v 12 6 0
v 10 7 -3
v 16 6 -1
v 14 6 -3
v 16 6 -6
v 0 1 22
v 4 1 26
v 4 1 23
v 2 3 20
v 0 3 17
v -1 3 20
v -3 1 23
v -3 1 26
v -7 2 22
v -5 3 20
v -7 3 17
v -9 3 20
v -11 2 23
v -11 1 26
v -15 2 22
v -13 3 20
v -15 3 17
v 8 1 22
v 6 2 20
v 8 3 17
v 12 1 26
v 12 1 23
v 10 2 20
v 16 1 22
v 14 2 20
v 16 2 17
v 17 2 -18
v -17 3 -1
usemtl c0
f 1 2 3
usemtl c1
f 1 3 4
f 1 4 5
usemtl c2
f 1 5 6
usemtl c3
f 1 6 7
usemtl c4
f 1 7 8
usemtl c5
f 1 8 2
usemtl c6
f 2 8 9
usemtl c7
f 2 9 10
usemtl c8
f 2 10 3
usemtl c9
f 3 10 11
usemtl c10
f 3 11 12
usemtl c11
f 13 9 14
f 13 14 15
usemtl c12
f 13 15 16
usemtl c8
f 13 16 17
usemtl c13
f 13 17 10
usemtl c14
f 13 10 9
usemtl c15
f 9 8 18
usemtl c4
f 9 18 14
usemtl c16
f 14 18 19
usemtl c17
f 14 19 16
usemtl c18
f 14 16 15
usemtl c19
f 20 21 22
usemtl c20
f 20 22 23
usemtl c21
f 20 23 24
usemtl c22
f 20 24 25
usemtl c23
f 20 25 26
usemtl c19
f 20 26 27
f 27 26 28
usemtl c20
f 28 26 29
usemtl c21
f 28 29 30
usemtl c22
f 28 30 31
usemtl c23
f 28 31 32
usemtl c19
f 28 32 33
usemtl c24
f 33 32 34
usemtl c19
f 34 32 35
f 34 35 36
usemtl c25
f 36 35 37
usemtl c19
f 21 38 22
usemtl c23
f 22 38 39
usemtl c22
f 39 38 40
f 39 40 41
usemtl c21
f 41 24 23
usemtl c19
f 38 42 43
usemtl c20
f 38 43 44
usemtl c21
f 38 44 40
f 40 44 45
usemtl c19
f 42 46 43
usemtl c23
f 43 46 47
usemtl c26
f 47 46 48
usemtl c27
f 47 48 45
usemtl c22
f 37 31 30
f 49 25 24
usemtl c21
f 49 30 29
usemtl c28
f 50 51 52
usemtl c29
f 50 52 53
usemtl c30
f 50 53 2
usemtl c31
f 50 2 54
usemtl c32
f 50 54 55
usemtl c28
f 50 55 56
f 56 55 57
usemtl c29
f 57 55 58
usemtl c33
f 57 58 59
usemtl c34
f 57 59 60
usemtl c32
f 57 60 61
usemtl c28
f 57 61 62
usemtl c29
f 62 61 63
usemtl c35
f 63 61 64
usemtl c36
f 63 64 65
usemtl c37
f 65 64 66
usemtl c28
f 51 67 52
usemtl c32
f 52 67 68
usemtl c34
f 68 67 69
usemtl c38
f 68 69 70
usemtl c33
f 70 2 53
usemtl c28
f 67 71 72
usemtl c39
f 67 72 73
usemtl c40
f 67 73 69
usemtl c41
f 69 73 74
usemtl c42
f 71 75 72
usemtl c43
f 72 75 76
usemtl c44
f 76 75 77
usemtl c45
f 76 77 74
usemtl c38
f 66 60 59
usemtl c34
f 78 54 2
usemtl c46
f 78 59 58
usemtl c47
f 9 41 79
usemtl c48
f 9 79 80
usemtl c49
f 9 80 81
usemtl c50
f 9 81 82
usemtl c51
f 9 82 83
usemtl c47
f 9 83 49
f 49 83 84
usemtl c48
f 84 83 85
usemtl c49
f 84 85 86
usemtl c50
f 84 86 87
usemtl c51
f 84 87 88
usemtl c47
f 84 88 37
usemtl c52
f 37 88 89
usemtl c53
f 89 88 90
usemtl c54
f 89 90 91
usemtl c55
f 91 90 62
usemtl c47
f 41 92 79
usemtl c51
f 79 92 93
usemtl c50
f 93 92 94
usemtl c56
f 93 94 51
usemtl c57
f 51 81 80
usemtl c47
f 92 45 95
usemtl c48
f 92 95 96
usemtl c49
f 92 96 94
usemtl c57
f 94 96 71
usemtl c58
f 45 97 95
usemtl c59
f 95 97 98
usemtl c60
f 98 97 99
usemtl c61
f 98 99 71
usemtl c56
f 62 87 86
f 56 82 81
usemtl c57
f 56 86 85
usemtl c62
f 100 101 102
usemtl c63
f 100 102 103
usemtl c64
f 100 103 104
usemtl c65
f 100 104 105
usemtl c66
f 100 105 106
usemtl c62
f 100 106 107
f 107 106 108
usemtl c63
f 108 106 109
usemtl c64
f 108 109 110
usemtl c65
f 108 110 111
usemtl c66
f 108 111 112
usemtl c62
f 108 112 113
usemtl c67
f 113 112 114
usemtl c68
f 114 112 115
usemtl c16
f 114 115 116
usemtl c69
f 116 115 33
usemtl c62
f 101 117 102
usemtl c66
f 102 117 118
usemtl c65
f 118 117 119
usemtl c25
f 118 119 21
usemtl c70
f 21 104 103
usemtl c62
f 117 120 121
usemtl c63
f 117 121 122
usemtl c64
f 117 122 119
usemtl c70
f 119 122 42
usemtl c71
f 120 123 121
usemtl c19
f 121 123 124
usemtl c72
f 124 123 125
usemtl c73
f 124 125 42
usemtl c25
f 33 111 110
f 27 105 104
usemtl c70
f 27 110 109
usemtl c74
f 10 17 126
usemtl c75
f 10 126 11
usemtl c76
f 18 8 127
usemtl c77
f 18 127 19
usemtl c78
f 8 7 127
