# Made by RuneLite Model-Dumper Plugin
mtllib Item Lava battlestaff 2026-08-01_11-48-09.mtl
o Item Lava battlestaff 2026-08-01_11-48-09
v 29 -1 34
v 45 0 49
v 46 7 47
v 31 2 34
v 20 5 24
v 22 2 20
v 30 -3 33
v 46 -2 46
v 47 7 44
v 32 1 32
v 24 8 19
v 22 10 22
v -6 1 -2
v -6 -1 -4
v -4 2 -5
v 51 4 48
v 51 1 50
v 49 1 51
v 49 4 50
v 53 8 55
v 59 4 50
v 59 -2 52
v 51 0 56
v 59 9 63
v 63 13 56
v 66 9 52
v 69 4 51
v 66 -4 55
v 63 -7 61
v 59 -4 63
v 53 1 67
v 59 2 69
v 63 9 66
v 69 14 61
v 73 10 56
v 70 4 52
v 70 -4 56
v 63 -7 62
v 59 -4 67
v -6 3 -3
v -29 2 -24
v -29 1 -26
v -28 4 -27
v -30 5 -25
v -59 6 -51
v -61 0 -49
v -57 -2 -54
v -56 3 -56
v 73 7 61
v 70 -2 63
v 66 1 69
v 69 9 66
usemtl c0
f 1 2 3
usemtl c1
f 1 3 4
usemtl c2
f 1 4 5
usemtl c3
f 1 5 6
usemtl c4
f 1 6 7
usemtl c5
f 1 7 2
usemtl c6
f 2 7 8
usemtl c7
f 2 8 3
usemtl c8
f 3 8 9
usemtl c9
f 3 9 10
usemtl c10
f 3 10 4
usemtl c11
f 4 10 11
usemtl c12
f 4 11 12
usemtl c13
f 4 12 5
usemtl c14
f 5 12 13
usemtl c15
f 5 13 6
usemtl c16
f 6 13 14
usemtl c17
f 6 14 15
usemtl c18
f 6 15 11
usemtl c19
f 6 11 7
usemtl c20
f 7 11 10
usemtl c21
f 7 10 8
usemtl c22
f 8 10 9
usemtl c23
f 8 9 16
usemtl c24
f 8 16 17
usemtl c25
f 8 17 2
usemtl c26
f 2 17 18
usemtl c27
f 2 18 3
usemtl c28
f 3 18 19
usemtl c29
f 3 19 9
usemtl c30
f 9 19 16
usemtl c31
f 16 19 20
usemtl c32
f 16 20 21
usemtl c33
f 16 21 17
usemtl c34
f 17 21 22
usemtl c35
f 17 22 18
usemtl c36
f 18 22 23
usemtl c37
f 18 23 19
usemtl c38
f 19 23 20
usemtl c39
f 20 23 24
f 20 24 25
f 20 25 21
f 21 25 26
f 21 26 27
f 21 27 28
f 21 28 22
f 22 28 29
f 22 29 23
f 23 29 30
f 23 30 31
f 23 31 24
f 24 31 32
f 24 32 33
f 24 33 34
f 24 34 25
f 25 34 26
f 26 34 35
f 26 35 36
f 26 36 27
f 27 36 28
f 28 36 37
f 28 37 38
f 28 38 29
f 29 38 30
f 30 38 39
f 30 39 32
f 30 32 31
usemtl c40
f 12 40 13
usemtl c41
f 13 40 41
usemtl c42
f 13 41 14
usemtl c43
f 14 41 42
usemtl c17
f 14 42 43
usemtl c44
f 14 43 15
usemtl c45
f 15 43 44
usemtl c46
f 15 44 40
usemtl c47
f 15 40 11
usemtl c48
f 11 40 12
usemtl c49
f 44 45 46
usemtl c50
f 44 46 41
usemtl c51
f 44 41 40
usemtl c52
f 41 44 43
usemtl c53
f 41 43 42
usemtl c54
f 42 47 48
usemtl c55
f 42 48 43
usemtl c56
f 43 48 45
usemtl c57
f 43 45 44
usemtl c58
f 46 47 42
usemtl c59
f 46 42 41
usemtl c39
f 37 36 49
f 37 49 50
f 37 50 38
f 38 50 39
f 39 50 51
f 39 51 32
f 32 51 33
f 33 51 52
f 33 52 34
f 34 52 35
f 35 52 49
f 35 49 36
f 50 49 52
f 50 52 51
