# Made by RuneLite Model-Dumper Plugin
mtllib Item Mystic smoke staff 2026-08-01_11-34-59.mtl
o Item Mystic smoke staff 2026-08-01_11-34-59
v 79 30 63
v 81 25 61
v 76 26 60
v 77 33 65
v 78 33 67
v 83 27 67
v 84 24 66
v 80 20 63
v 77 23 60
v 72 25 60
v 69 29 62
v 70 32 65
v 73 35 70
v 77 33 73
v 82 30 73
v 84 25 71
v 82 20 73
v 80 16 66
v 77 16 64
v 70 19 62
v 67 24 62
v 67 29 65
v 69 32 71
v 72 32 74
v 79 30 76
v 82 25 75
v 80 20 75
v 79 16 72
v 76 16 69
v 72 16 65
v 67 19 65
v 65 24 67
v 65 25 72
v 68 29 75
v 72 25 78
v 77 24 79
v 72 22 78
v 73 16 74
v 71 16 70
v 65 21 72
v 68 24 76
v 69 19 75
v 62 25 41
v 62 22 41
v 61 23 40
v 58 27 44
v 60 27 45
v 64 23 44
v 64 21 44
v 62 20 41
v 61 21 40
v 56 21 41
v 55 24 41
v 56 27 45
v 57 28 46
v 60 27 47
v 63 24 50
v 65 22 48
v 63 19 50
v 62 16 44
v 60 16 43
v 55 19 41
v 53 21 41
v 53 24 42
v 55 27 48
v 57 27 49
v 62 24 51
v 64 21 51
v 62 19 51
v 62 16 47
v 58 16 46
v 57 16 44
v 53 19 42
v 53 21 44
v 53 21 48
v 54 23 50
v 57 22 52
v 61 21 51
v 57 20 52
v 58 16 48
v 57 16 47
v 53 20 48
v 54 20 51
v 54 18 50
v 24 13 16
v 24 7 20
v 42 16 26
v 42 16 24
v 24 12 10
v 7 10 9
v 6 10 9
v 8 10 9
v 5 10 10
v 20 4 13
v 39 14 26
v 41 16 26
v 21 8 8
v 7 6 8
v 9 10 7
v 6 9 9
v 44 14 23
v 7 7 8
v -50 7 -39
v -51 3 -41
v -37 6 -32
v -43 8 -35
v -52 9 -40
v -63 11 -50
v -63 8 -49
v -65 8 -52
v -52 5 -48
v -43 6 -42
v -11 9 -21
v -15 7 -18
v -12 7 -14
v -46 8 -37
v -52 8 -49
v -61 11 -49
v -71 12 -54
v -62 11 -53
v -38 7 -39
v -29 10 -31
v -20 15 -18
v 5 7 3
v 5 6 3
v 2 7 3
v 0 7 6
v 8 9 9
v 59 16 84
v 64 20 82
v 52 20 81
v 51 16 82
v 63 13 86
v 76 17 89
v 71 16 88
v 75 17 87
v 65 17 78
v 52 17 76
v 57 26 60
v 54 27 75
v 52 30 73
v 49 25 60
v 51 24 58
v 52 14 82
v 64 13 80
v 77 15 89
v 80 17 88
v 74 18 85
v 53 15 78
v 57 20 57
v 60 21 60
v 67 17 51
v 64 23 51
v 82 19 52
v 86 21 53
v 72 25 51
v 88 24 50
v 69 24 46
v 50 18 28
v 70 18 45
v 50 17 27
v 50 15 26
v 87 17 47
v 93 23 59
v 86 20 47
v 47 16 31
v 46 18 33
v 55 35 85
v 56 38 82
v 52 34 70
v 50 34 70
v 60 32 84
v 70 37 89
v 66 38 88
v 67 39 87
v 60 37 78
v 62 33 79
v 72 38 85
v 77 41 89
v 67 40 83
v -67 4 -50
v -67 3 -50
v -67 6 -48
v -66 4 -50
v -66 2 -49
v -68 2 -46
v -68 3 -47
v -68 4 -46
v -67 6 -47
v -66 7 -48
v -63 5 -49
v -64 4 -50
v -63 3 -49
v -65 2 -48
v -66 2 -48
v -67 1 -47
v -65 2 -47
v -65 3 -45
v -67 3 -46
v -68 3 -46
v -66 6 -46
v -64 4 -46
v -63 4 -48
v -63 4 -49
v -65 4 -45
v -54 16 -45
v -54 15 -46
v -54 15 -45
v -53 15 -46
v -54 14 -46
v -53 12 -45
v -55 13 -43
v -55 14 -44
v -56 15 -42
v -54 16 -43
v -53 16 -44
v -51 16 -45
v -51 15 -45
v -51 14 -45
v -55 14 -42
v -55 14 -43
v -53 15 -41
v -53 16 -43
v -53 12 -44
v -53 12 -43
v -52 14 -41
v -52 15 -41
v -53 16 -41
v -51 15 -42
v -52 12 -45
v -50 15 -45
v 48 18 25
v 50 16 23
v 48 16 22
v 46 21 26
v 47 21 27
v 51 16 26
v 49 14 24
v 43 16 23
v 41 17 24
v 43 20 27
v 44 21 28
v 47 21 30
v 50 18 32
v 52 16 31
v 40 17 25
v 43 20 31
v 48 18 33
v 51 16 32
v 50 14 31
v 48 11 26
v 47 11 26
v 42 13 24
v 40 16 24
v 39 16 26
v 39 16 31
v 41 17 33
v 40 13 25
v 39 15 31
v 41 16 34
v 43 16 35
v 48 16 34
v 49 14 32
v 48 11 30
v 45 10 28
v 43 10 27
v 43 10 30
v 42 13 32
v 43 15 35
v 44 10 31
v 0 8 4
v 0 7 5
v 6 7 9
v 4 6 2
v 4 6 3
v 9 6 8
usemtl c0
f 1 2 3
f 1 3 4
f 1 4 5
f 1 5 6
f 1 6 2
f 2 6 7
f 2 7 8
f 2 8 9
f 2 9 3
f 3 9 10
f 3 10 11
f 3 11 4
f 4 11 12
f 4 12 13
f 4 13 5
f 5 13 14
f 5 14 15
f 5 15 6
f 6 15 16
f 6 16 7
f 7 16 17
f 7 17 18
f 7 18 8
f 8 18 19
f 8 19 9
f 9 19 20
f 9 20 10
f 10 20 21
f 10 21 11
f 11 21 22
f 11 22 12
f 12 22 23
f 12 23 13
f 13 23 24
f 13 24 14
f 14 24 25
f 14 25 15
f 15 25 26
f 15 26 16
f 16 26 17
f 17 26 27
f 17 27 28
f 17 28 18
f 18 28 29
f 18 29 19
f 19 29 30
f 19 30 20
f 20 30 31
f 20 31 21
f 21 31 32
f 21 32 22
f 22 32 33
f 22 33 23
f 23 33 34
f 23 34 24
f 24 34 35
f 24 35 25
f 25 35 36
f 25 36 26
f 26 36 27
f 27 36 37
f 27 37 38
f 27 38 28
f 28 38 29
f 29 38 39
f 29 39 30
f 30 39 31
f 31 39 40
f 31 40 32
f 32 40 33
f 33 40 41
f 33 41 34
f 34 41 35
f 35 41 37
f 35 37 36
f 42 39 38
f 42 38 37
f 42 37 41
f 42 41 40
f 42 40 39
usemtl c1
f 43 44 45
f 43 45 46
f 43 46 47
f 43 47 48
f 43 48 44
usemtl c2
f 44 48 49
usemtl c1
f 44 49 50
f 44 50 51
f 44 51 45
f 45 51 52
f 45 52 53
f 45 53 46
f 46 53 54
f 46 54 55
f 46 55 47
f 47 55 56
f 47 56 57
f 47 57 48
f 48 57 58
f 48 58 49
f 49 58 59
f 49 59 60
f 49 60 50
f 50 60 61
f 50 61 51
f 51 61 62
f 51 62 52
f 52 62 63
f 52 63 53
f 53 63 64
f 53 64 54
f 54 64 65
f 54 65 55
f 55 65 66
f 55 66 56
f 56 66 67
f 56 67 57
f 57 67 68
f 57 68 58
f 58 68 59
f 59 68 69
f 59 69 70
f 59 70 60
f 60 70 71
f 60 71 61
f 61 71 72
f 61 72 62
f 62 72 73
f 62 73 63
f 63 73 74
f 63 74 64
f 64 74 75
f 64 75 65
f 65 75 76
f 65 76 66
f 66 76 77
f 66 77 67
f 67 77 78
f 67 78 68
f 68 78 69
f 69 78 79
f 69 79 80
f 69 80 70
f 70 80 71
f 71 80 81
f 71 81 72
f 72 81 73
f 73 81 82
f 73 82 74
f 74 82 75
f 75 82 83
f 75 83 76
f 76 83 77
f 77 83 79
f 77 79 78
f 84 81 80
f 84 80 79
f 84 79 83
f 84 83 82
f 84 82 81
usemtl c3
f 85 86 87
usemtl c4
f 85 87 88
usemtl c5
f 85 88 89
usemtl c6
f 85 89 90
usemtl c7
f 85 90 91
usemtl c8
f 85 91 86
usemtl c9
f 86 91 92
usemtl c10
f 86 92 93
f 86 93 94
usemtl c11
f 86 94 95
usemtl c12
f 86 95 87
usemtl c13
f 89 88 96
usemtl c14
f 89 96 97
usemtl c15
f 89 97 98
usemtl c16
f 89 98 99
usemtl c17
f 89 99 100
usemtl c16
f 89 100 90
usemtl c18
f 97 96 101
usemtl c19
f 97 101 94
usemtl c7
f 97 94 102
usemtl c20
f 97 102 98
usemtl c21
f 94 101 95
usemtl c22
f 93 102 94
usemtl c23
f 103 104 105
usemtl c24
f 103 105 106
f 103 106 107
usemtl c25
f 103 107 108
usemtl c26
f 103 108 104
usemtl c25
f 104 108 109
usemtl c27
f 104 109 110
usemtl c28
f 104 110 111
usemtl c29
f 104 111 112
usemtl c30
f 104 112 105
usemtl c31
f 105 112 113
usemtl c32
f 105 113 114
usemtl c33
f 105 114 106
usemtl c7
f 106 114 115
usemtl c34
f 106 115 116
usemtl c7
f 106 116 107
usemtl c31
f 107 116 117
usemtl c35
f 107 117 118
usemtl c36
f 107 118 108
usemtl c37
f 108 118 119
usemtl c38
f 108 119 109
usemtl c39
f 109 119 110
usemtl c40
f 110 119 120
usemtl c41
f 110 120 111
usemtl c42
f 111 120 117
usemtl c14
f 111 117 121
usemtl c43
f 111 121 112
usemtl c44
f 112 121 122
usemtl c43
f 112 122 113
usemtl c45
f 113 122 123
usemtl c17
f 113 123 124
usemtl c14
f 113 124 125
usemtl c46
f 113 125 114
usemtl c31
f 114 125 126
usemtl c47
f 114 126 115
usemtl c10
f 115 126 127
f 115 127 123
usemtl c34
f 115 123 116
usemtl c48
f 116 123 121
usemtl c49
f 116 121 117
usemtl c50
f 118 120 119
usemtl c51
f 120 118 117
usemtl c52
f 121 123 122
usemtl c10
f 91 93 92
usemtl c28
f 91 92 128
f 91 128 99
usemtl c17
f 99 128 100
usemtl c34
f 123 126 124
usemtl c53
f 126 123 127
usemtl c4
f 129 130 131
usemtl c54
f 129 131 132
usemtl c55
f 129 132 133
usemtl c56
f 129 133 134
usemtl c57
f 129 134 135
usemtl c58
f 129 135 136
usemtl c3
f 129 136 130
usemtl c59
f 130 136 137
usemtl c13
f 130 137 138
usemtl c47
f 130 138 131
usemtl c28
f 131 138 139
usemtl c40
f 131 139 140
usemtl c60
f 131 140 132
usemtl c61
f 132 140 141
usemtl c62
f 132 141 142
usemtl c63
f 132 142 143
usemtl c12
f 132 143 144
usemtl c61
f 132 144 133
usemtl c64
f 133 144 145
usemtl c33
f 133 145 146
usemtl c65
f 133 146 134
usemtl c5
f 134 146 147
usemtl c30
f 134 147 135
usemtl c66
f 135 147 136
usemtl c22
f 136 147 148
usemtl c67
f 136 148 137
usemtl c68
f 137 148 145
usemtl c18
f 137 145 149
usemtl c44
f 137 149 138
usemtl c69
f 138 149 150
usemtl c70
f 138 150 151
usemtl c17
f 138 151 139
usemtl c6
f 139 151 152
usemtl c71
f 139 152 153
usemtl c58
f 153 152 154
usemtl c72
f 153 154 155
usemtl c73
f 153 155 156
usemtl c74
f 156 155 157
usemtl c35
f 156 157 158
usemtl c47
f 156 158 159
usemtl c41
f 159 158 160
usemtl c75
f 159 160 161
usemtl c76
f 161 160 162
usemtl c69
f 162 160 152
f 152 160 163
usemtl c77
f 152 163 154
usemtl c33
f 154 163 164
usemtl c78
f 154 164 155
usemtl c77
f 155 164 157
usemtl c79
f 157 164 165
usemtl c69
f 157 165 158
usemtl c14
f 158 165 163
f 158 163 160
usemtl c19
f 145 144 149
usemtl c28
f 149 144 150
usemtl c64
f 150 144 143
usemtl c12
f 150 143 166
usemtl c5
f 150 166 162
usemtl c20
f 148 147 146
usemtl c80
f 148 146 145
usemtl c29
f 142 139 159
usemtl c81
f 142 159 167
usemtl c82
f 142 167 143
usemtl c83
f 143 167 166
usemtl c27
f 168 169 170
usemtl c39
f 168 170 171
usemtl c78
f 168 171 172
usemtl c84
f 168 172 173
usemtl c85
f 168 173 174
usemtl c86
f 168 174 175
usemtl c87
f 168 175 169
usemtl c4
f 169 175 176
usemtl c20
f 169 176 170
usemtl c88
f 170 176 140
usemtl c31
f 170 140 142
usemtl c5
f 170 142 171
usemtl c78
f 171 142 141
usemtl c89
f 171 141 172
usemtl c90
f 172 141 177
usemtl c91
f 172 177 178
usemtl c71
f 172 178 173
usemtl c92
f 173 178 179
usemtl c93
f 173 179 174
usemtl c87
f 174 179 175
usemtl c60
f 175 179 180
usemtl c10
f 175 180 176
usemtl c94
f 176 180 177
usemtl c15
f 176 177 140
usemtl c30
f 140 177 141
usemtl c95
f 180 179 178
usemtl c41
f 180 178 177
usemtl c71
f 140 132 142
usemtl c29
f 140 139 142
usemtl c49
f 165 164 163
usemtl c20
f 150 152 151
usemtl c1
f 181 182 182
f 181 182 183
f 181 183 184
f 181 184 182
f 182 184 185
f 182 185 182
f 182 185 186
f 182 186 187
f 182 187 188
f 182 188 183
f 183 188 189
f 183 189 189
f 183 189 190
f 183 190 191
f 183 191 184
f 184 191 192
f 184 192 193
f 184 193 185
f 185 193 194
f 185 194 195
f 185 195 196
f 185 196 186
f 186 196 197
f 186 197 198
f 186 198 199
f 186 199 200
f 186 200 187
f 187 200 188
f 188 200 199
f 188 199 198
f 188 198 201
f 188 201 189
f 189 201 189
f 189 201 190
f 190 201 191
f 191 201 202
f 191 202 203
f 191 203 204
f 191 204 192
f 192 204 193
f 193 204 203
f 193 203 202
f 193 202 197
f 193 197 194
f 194 197 195
f 195 197 196
f 205 198 202
f 205 202 201
f 205 201 198
f 198 197 202
f 206 207 208
f 206 208 206
f 206 206 209
f 206 209 207
f 207 209 210
f 207 210 208
f 208 210 211
f 208 211 212
f 208 212 213
f 208 213 214
f 208 214 206
f 206 214 215
f 206 215 216
f 206 216 217
f 206 217 209
f 209 217 218
f 209 218 219
f 209 219 211
f 209 211 210
f 220 214 221
f 220 221 212
f 220 212 222
f 220 222 214
f 214 222 223
f 214 223 215
f 215 223 216
f 216 223 216
f 216 216 206
f 213 221 214
f 221 213 212
f 224 212 211
f 224 211 224
f 224 224 225
f 224 225 212
f 212 225 222
f 222 225 226
f 222 226 227
f 222 227 228
f 222 228 223
f 223 228 229
f 223 229 217
f 223 217 216
f 230 224 211
f 230 211 219
f 230 219 225
f 230 225 224
f 228 227 229
f 229 227 226
f 229 226 225
f 229 225 219
f 229 219 231
f 229 231 217
f 217 231 218
f 217 218 218
f 218 218 219
f 219 218 231
f 232 233 234
f 232 234 235
f 232 235 236
f 232 236 237
f 232 237 233
f 233 237 238
f 233 238 234
f 233 234 234
f 234 234 239
f 234 239 240
f 234 240 235
f 235 240 241
f 235 241 242
f 235 242 236
f 236 242 243
f 236 243 244
f 236 244 237
f 237 244 245
usemtl c94
f 237 245 237
usemtl c1
f 237 237 233
f 241 240 246
f 241 246 247
f 241 247 242
f 242 247 243
f 243 247 248
f 243 248 244
f 244 248 249
f 244 249 245
f 245 249 250
f 245 250 237
f 237 250 251
f 237 251 238
f 238 251 252
f 238 252 234
f 234 252 253
f 234 253 239
f 239 253 254
f 239 254 240
f 240 254 246
f 246 254 255
f 246 255 256
f 246 256 247
f 247 256 257
f 247 257 247
f 247 247 242
f 255 254 258
f 255 258 259
f 255 259 256
f 256 259 260
f 256 260 257
f 257 260 261
f 257 261 247
f 247 261 248
f 248 261 262
f 248 262 249
f 249 262 263
usemtl c34
f 249 263 250
usemtl c1
f 250 263 264
f 250 264 251
f 251 264 265
f 251 265 252
f 252 265 266
f 252 266 253
f 253 266 258
f 253 258 254
f 266 265 267
f 266 267 258
f 258 267 259
f 259 267 268
f 259 268 260
f 260 268 269
f 260 269 261
f 261 269 262
f 262 269 263
f 263 269 270
f 263 270 264
f 264 270 265
f 265 270 267
f 267 270 268
f 268 270 269
usemtl c4
f 93 271 272
usemtl c12
f 93 272 273
usemtl c22
f 93 273 99
usemtl c5
f 93 99 271
usemtl c31
f 271 99 274
usemtl c96
f 271 274 275
usemtl c30
f 271 275 272
usemtl c10
f 272 275 273
usemtl c35
f 273 275 276
usemtl c21
f 273 276 99
usemtl c80
f 99 276 274
usemtl c13
f 274 276 275
