# Made by RuneLite Model-Dumper Plugin
mtllib Item Rune dagger 2026-07-31_20-54-14.mtl
o Item Rune dagger 2026-07-31_20-54-14
v 0 8 -16
v 0 7 -21
v 0 12 -20
v 0 10 -16
v 2 7 -5
v 2 9 -5
v 0 9 -3
v -2 10 -14
v 0 7 -3
v -2 8 -14
v -4 7 -20
v -4 13 -19
v -5 10 3
v -4 9 -3
v -4 7 -3
v -5 4 2
v 11 10 0
v 6 9 -6
v 6 7 -6
v 11 4 -1
v 9 5 22
v 11 5 22
v 4 7 0
v 3 7 0
v 5 5 23
v 9 4 31
v 0 7 0
v 0 7 1
v 3 5 24
usemtl c0
f 1 2 3
usemtl c1
f 1 3 4
usemtl c2
f 1 4 5
f 5 4 6
usemtl c3
f 6 4 7
f 7 4 8
usemtl c4
f 7 8 9
f 9 8 10
usemtl c5
f 10 8 11
usemtl c6
f 11 8 12
usemtl c7
f 11 12 2
usemtl c8
f 2 12 3
usemtl c9
f 3 12 8
usemtl c10
f 3 8 4
usemtl c11
f 13 14 15
usemtl c12
f 13 15 16
usemtl c13
f 13 16 17
usemtl c14
f 13 17 14
usemtl c15
f 14 17 18
usemtl c16
f 14 18 19
usemtl c17
f 14 19 15
usemtl c18
f 18 17 20
usemtl c19
f 18 20 19
usemtl c20
f 17 16 20
usemtl c21
f 21 22 23
f 21 23 24
usemtl c22
f 21 24 25
f 21 25 26
usemtl c21
f 21 26 22
usemtl c22
f 25 24 27
usemtl c23
f 25 27 28
f 25 28 29
f 25 29 26
