# Made by RuneLite Model-Dumper Plugin
mtllib Item Saradomin staff 2026-07-31_20-55-59.mtl
o Item Saradomin staff 2026-07-31_20-55-59
v 16 4 -24
v 15 8 -26
v 54 11 -62
v 54 10 -61
v 55 10 -60
v 56 11 -61
v 56 12 -59
v 21 9 -20
v 19 5 -20
v 15 9 -16
v 14 6 -17
v -1 8 0
v -2 5 0
v -4 8 6
v -5 4 5
v -29 6 31
v -31 3 30
v -32 3 32
v -32 11 32
v -39 8 37
v -39 5 37
v -44 10 45
v -45 4 44
v -38 7 55
v -48 10 49
v -48 3 48
v -64 8 61
v -53 11 44
v -53 4 43
v -60 7 33
v -49 9 40
v -49 3 40
v -42 8 35
v -42 5 34
v -36 10 28
v -37 3 27
v -36 5 24
v -35 3 26
v -11 7 0
v -9 3 1
v -5 8 -3
v -4 5 -2
v 11 9 -20
v 12 6 -19
v 16 12 -22
v 13 11 -19
v -33 10 28
v -8 10 2
v -3 11 -1
v -49 21 45
v -49 -5 44
usemtl c0
f 1 2 3
usemtl c1
f 1 3 4
usemtl c2
f 4 3 5
usemtl c3
f 5 3 6
usemtl c4
f 5 6 7
usemtl c5
f 5 7 8
usemtl c6
f 5 8 9
usemtl c7
f 9 8 10
usemtl c8
f 9 10 11
usemtl c9
f 11 10 12
usemtl c10
f 11 12 13
usemtl c11
f 13 12 14
usemtl c12
f 13 14 15
usemtl c0
f 15 14 16
usemtl c6
f 15 16 17
usemtl c13
f 17 16 18
usemtl c14
f 18 16 19
usemtl c15
f 18 19 20
usemtl c16
f 18 20 21
usemtl c17
f 21 20 22
usemtl c18
f 21 22 23
usemtl c19
f 23 22 24
usemtl c20
f 24 22 25
usemtl c21
f 24 25 26
usemtl c22
f 26 25 27
usemtl c23
f 27 25 28
usemtl c24
f 27 28 29
usemtl c25
f 29 28 30
usemtl c26
f 30 28 31
usemtl c27
f 30 31 32
usemtl c28
f 32 31 33
usemtl c29
f 32 33 34
usemtl c30
f 34 33 35
usemtl c31
f 34 35 36
usemtl c32
f 36 35 37
usemtl c33
f 36 37 38
usemtl c34
f 38 37 39
usemtl c35
f 38 39 40
usemtl c36
f 40 39 41
usemtl c37
f 40 41 42
usemtl c38
f 42 41 43
usemtl c39
f 42 43 44
usemtl c8
f 44 43 2
usemtl c40
f 44 2 1
usemtl c41
f 2 45 6
usemtl c42
f 2 6 3
usemtl c43
f 45 8 7
usemtl c44
f 45 7 6
usemtl c45
f 43 46 45
usemtl c7
f 43 45 2
usemtl c46
f 46 10 8
f 46 8 45
usemtl c47
f 37 47 48
usemtl c48
f 37 48 39
usemtl c49
f 39 48 49
usemtl c50
f 39 49 41
usemtl c51
f 41 49 46
usemtl c52
f 41 46 43
usemtl c53
f 47 16 14
usemtl c54
f 47 14 48
usemtl c55
f 48 14 12
usemtl c56
f 48 12 49
usemtl c57
f 49 12 10
usemtl c58
f 49 10 46
usemtl c59
f 35 19 47
usemtl c60
f 35 47 37
f 19 16 47
usemtl c61
f 19 35 33
usemtl c32
f 19 33 20
usemtl c62
f 20 33 31
usemtl c63
f 20 31 22
usemtl c64
f 22 31 50
usemtl c20
f 22 50 25
usemtl c65
f 25 50 28
usemtl c66
f 28 50 31
usemtl c67
f 51 26 29
usemtl c14
f 51 29 32
usemtl c68
f 51 32 23
usemtl c69
f 51 23 26
