# Made by RuneLite Model-Dumper Plugin
mtllib Item Rune plateskirt 2026-07-31_20-54-33.mtl
o Item Rune plateskirt 2026-07-31_20-54-33
v 10 10 -16
v 10 0 -12
v 10 1 -16
v -19 2 -16
v -19 11 -16
v -19 10 -12
v 10 9 -12
v 18 0 0
v 18 7 6
v 17 2 34
v 24 -3 33
v -19 1 -12
v -27 9 6
v -28 0 1
v -35 -2 33
v -26 3 34
v -7 7 13
v -1 7 13
v -14 8 13
v -14 3 34
v -7 3 34
v 5 7 13
v 11 7 11
v 17 7 9
v 11 2 34
v -1 2 34
v 5 2 34
v -26 8 9
v -20 8 11
v -20 3 34
v 18 5 9
v 20 2 7
v 19 -1 5
v 21 0 34
v 23 -1 34
v -27 6 9
v -29 4 7
v -32 0 34
v -30 1 34
v -29 0 6
usemtl c0
f 1 2 3
usemtl c1
f 1 3 4
usemtl c2
f 1 4 5
usemtl c3
f 1 5 6
usemtl c4
f 1 6 7
usemtl c0
f 1 7 2
usemtl c5
f 2 7 8
usemtl c6
f 8 7 9
usemtl c7
f 8 9 10
usemtl c8
f 8 10 11
usemtl c9
f 12 6 5
usemtl c10
f 12 5 4
usemtl c11
f 13 9 7
usemtl c12
f 13 7 6
usemtl c13
f 13 6 14
usemtl c14
f 13 14 15
usemtl c15
f 13 15 16
usemtl c16
f 13 16 9
usemtl c17
f 9 16 10
usemtl c18
f 6 12 14
usemtl c19
f 17 18 9
usemtl c20
f 17 9 13
usemtl c21
f 17 13 19
usemtl c22
f 17 19 20
usemtl c21
f 17 20 21
usemtl c23
f 18 22 9
f 9 22 23
f 9 23 24
usemtl c24
f 24 23 25
usemtl c25
f 24 25 10
usemtl c26
f 22 18 26
usemtl c27
f 22 26 27
usemtl c28
f 13 28 29
usemtl c29
f 13 29 19
f 29 28 16
f 29 16 30
usemtl c30
f 8 9 31
usemtl c31
f 8 31 32
usemtl c32
f 8 32 33
usemtl c33
f 34 35 32
usemtl c34
f 34 32 31
usemtl c18
f 36 13 14
usemtl c35
f 36 14 37
usemtl c36
f 36 37 38
usemtl c37
f 36 38 39
usemtl c38
f 40 37 14
