# Made by RuneLite Model-Dumper Plugin
mtllib Object Table 2026-07-31_21-19-20.mtl
o Object Table 2026-07-31_21-19-20
v -58 85 42
v -41 85 56
v 122 85 62
v 118 78 34
v -58 80 36
v -85 83 36
v -85 88 42
v -85 88 56
v -41 80 62
v 122 80 62
v 118 73 34
v 98 80 54
v 98 80 38
v 98 0 38
v 98 0 54
v 114 80 54
v 114 0 54
v 114 80 38
v 114 0 38
v 98 73 -40
v 98 73 -56
v 98 0 -56
v 98 0 -40
v 114 73 -40
v 114 0 -40
v 114 73 -56
v 114 0 -56
v -101 83 39
v -101 81 23
v -116 0 32
v -115 2 48
v -85 81 39
v -99 0 48
v -86 79 23
v -100 -2 32
v -113 80 -33
v -115 80 -48
v -115 0 -48
v -113 0 -33
v -98 80 -35
v -98 0 -35
v -100 80 -50
v -100 0 -50
v -85 83 62
v -128 85 62
v -128 80 62
v -128 80 36
v -128 85 36
v 55 85 -41
v 38 82 -51
v -125 85 -61
v -121 84 -31
v 55 80 -35
v 82 83 -35
v 82 88 -41
v 82 88 -55
v 38 77 -57
v -125 80 -61
v -121 79 -31
v 82 83 -61
v 125 85 -61
v 125 80 -61
v 125 80 -35
v 125 85 -35
v -125 78 11
v -127 85 26
v -65 83 16
v -62 85 10
v -125 73 11
v -127 80 26
v -65 78 22
v 80 83 26
v 80 88 20
v 81 88 14
v -61 80 3
v 81 83 8
v 124 85 8
v 124 80 8
v 123 80 26
v 123 85 26
v 125 78 -10
v 127 85 -25
v 66 80 -19
v 62 85 -9
v 125 73 -10
v 127 80 -25
v 66 75 -25
v -80 83 -25
v -80 88 -19
v -81 88 -13
v 61 80 -2
v -81 83 -7
v -124 85 -7
v -124 80 -7
v -123 80 -25
v -123 85 -25
v -69 75 -58
v -84 75 -59
v -76 75 -29
v -68 75 -28
v -69 59 -58
v -84 59 -59
v -82 59 -29
v -84 62 39
v -78 78 39
v -72 78 39
v -67 59 -28
v -66 62 39
v -66 75 60
v -66 59 60
v -84 59 59
v -84 75 59
v 79 76 63
v 93 75 64
v 85 75 34
v 77 75 33
v 79 60 63
v 93 59 64
v 91 59 34
v 93 62 -34
v 87 78 -34
v 81 78 -34
v 74 59 33
v 75 62 -34
v 75 75 -55
v 75 59 -55
v 93 59 -54
v 93 75 -54
usemtl c0
f 1 2 3
usemtl c1
f 1 3 4
usemtl c2
f 1 4 5
usemtl c3
f 1 5 6
usemtl c4
f 1 6 7
usemtl c5
f 1 7 2
usemtl c6
f 2 7 8
usemtl c7
f 2 8 9
usemtl c8
f 2 9 3
usemtl c9
f 3 9 10
usemtl c10
f 3 10 4
usemtl c11
f 4 10 11
usemtl c12
f 4 11 5
usemtl c13
f 12 13 14
usemtl c14
f 12 14 15
f 12 15 16
usemtl c13
f 16 15 17
usemtl c15
f 16 17 18
usemtl c16
f 18 17 19
f 18 19 13
usemtl c15
f 13 19 14
usemtl c13
f 20 21 22
usemtl c14
f 20 22 23
f 20 23 24
usemtl c13
f 24 23 25
usemtl c15
f 24 25 26
usemtl c16
f 26 25 27
f 26 27 21
usemtl c15
f 21 27 22
usemtl c8
f 28 29 30
usemtl c17
f 28 30 31
usemtl c18
f 28 31 32
usemtl c19
f 32 31 33
usemtl c20
f 32 33 34
usemtl c11
f 34 33 35
usemtl c16
f 34 35 29
usemtl c21
f 29 35 30
usemtl c22
f 36 37 38
usemtl c18
f 36 38 39
usemtl c23
f 36 39 40
usemtl c24
f 40 39 41
usemtl c25
f 40 41 42
usemtl c26
f 42 41 43
usemtl c27
f 42 43 37
usemtl c28
f 37 43 38
usemtl c29
f 8 44 9
f 44 8 45
usemtl c30
f 44 45 46
usemtl c31
f 46 45 47
usemtl c32
f 47 45 48
usemtl c33
f 47 48 7
usemtl c34
f 47 7 6
usemtl c35
f 48 45 8
usemtl c36
f 48 8 7
usemtl c37
f 49 50 51
usemtl c38
f 49 51 52
usemtl c39
f 49 52 53
usemtl c40
f 49 53 54
usemtl c41
f 49 54 55
usemtl c42
f 49 55 50
usemtl c43
f 50 55 56
usemtl c44
f 50 56 57
f 50 57 51
usemtl c45
f 51 57 58
usemtl c8
f 51 58 52
usemtl c46
f 52 58 59
usemtl c47
f 52 59 53
usemtl c48
f 56 60 57
usemtl c49
f 60 56 61
usemtl c50
f 60 61 62
usemtl c3
f 62 61 63
usemtl c51
f 63 61 64
usemtl c52
f 63 64 55
usemtl c53
f 63 55 54
usemtl c54
f 64 61 56
usemtl c6
f 64 56 55
usemtl c55
f 65 66 67
usemtl c56
f 65 67 68
usemtl c57
f 65 68 69
usemtl c58
f 65 69 66
usemtl c59
f 66 69 70
usemtl c60
f 66 70 67
usemtl c39
f 67 70 71
f 67 71 72
usemtl c60
f 67 72 73
usemtl c38
f 67 73 68
usemtl c61
f 68 73 74
usemtl c15
f 68 74 75
usemtl c62
f 68 75 69
usemtl c63
f 75 74 76
usemtl c64
f 76 74 77
usemtl c65
f 76 77 78
usemtl c64
f 78 77 79
usemtl c66
f 79 77 80
usemtl c67
f 79 80 73
usemtl c68
f 79 73 72
usemtl c69
f 74 73 80
usemtl c54
f 74 80 77
usemtl c70
f 81 82 83
usemtl c71
f 81 83 84
usemtl c72
f 81 84 85
usemtl c73
f 81 85 82
usemtl c74
f 82 85 86
usemtl c75
f 82 86 83
f 83 86 87
usemtl c76
f 83 87 88
usemtl c77
f 83 88 89
usemtl c78
f 83 89 84
usemtl c61
f 84 89 90
usemtl c22
f 84 90 91
usemtl c79
f 84 91 85
usemtl c80
f 91 90 92
usemtl c40
f 92 90 93
usemtl c81
f 92 93 94
usemtl c82
f 94 93 95
usemtl c83
f 95 93 96
usemtl c84
f 95 96 89
usemtl c85
f 95 89 88
usemtl c71
f 90 89 96
usemtl c55
f 90 96 93
usemtl c37
f 97 98 99
usemtl c86
f 97 99 100
usemtl c87
f 97 100 101
usemtl c3
f 97 101 98
usemtl c28
f 98 101 102
usemtl c88
f 98 102 99
usemtl c89
f 99 102 103
usemtl c81
f 99 103 104
usemtl c39
f 99 104 105
usemtl c90
f 99 105 100
usemtl c91
f 100 105 106
usemtl c75
f 100 106 107
usemtl c26
f 100 107 101
usemtl c16
f 107 106 108
usemtl c92
f 108 106 109
usemtl c93
f 108 109 110
usemtl c94
f 110 109 111
usemtl c95
f 111 109 112
usemtl c96
f 111 112 105
usemtl c97
f 111 105 104
usemtl c90
f 106 105 112
usemtl c98
f 106 112 109
usemtl c99
f 113 114 115
usemtl c100
f 113 115 116
usemtl c101
f 113 116 117
usemtl c29
f 113 117 114
usemtl c102
f 114 117 118
usemtl c103
f 114 118 115
usemtl c104
f 115 118 119
usemtl c105
f 115 119 120
usemtl c106
f 115 120 121
usemtl c107
f 115 121 116
usemtl c108
f 116 121 122
usemtl c109
f 116 122 123
usemtl c110
f 116 123 117
f 123 122 124
usemtl c111
f 124 122 125
usemtl c112
f 124 125 126
usemtl c113
f 126 125 127
usemtl c114
f 127 125 128
usemtl c75
f 127 128 121
usemtl c115
f 127 121 120
usemtl c107
f 122 121 128
usemtl c116
f 122 128 125
