# Made by RuneLite Model-Dumper Plugin
mtllib Object Rune sword 2026-08-01_11-44-32.mtl
o Object Rune sword 2026-08-01_11-44-32
v -12 -1 -21
v -18 -5 -14
v -10 26 -10
v -3 28 -13
v -5 0 -25
v -8 -4 -29
v -14 -5 -27
v -16 -6 -22
v -21 5 1
v -15 26 -1
v -15 76 -7
v -11 76 -11
v -5 76 -14
v 5 28 -14
v 9 2 -20
v -1 -2 -26
v -19 7 11
v -14 27 7
v -17 76 0
v -3 141 9
v -4 135 5
v 1 142 4
v 6 135 1
v 1 76 -12
v 12 30 -9
v 20 6 -8
v 17 32 -2
v 24 13 0
v 33 15 9
v 33 11 4
v 46 17 11
v 46 15 7
v 58 20 18
v 56 18 16
v -11 9 19
v -15 27 14
v -16 76 7
v -4 134 14
v -20 177 39
v -17 177 32
v 4 143 11
v 0 11 23
v -8 28 19
v -12 76 11
v -1 134 18
v -16 174 44
v -19 179 43
v -42 222 30
v -44 222 28
v -45 219 24
v -40 222 22
v -13 183 32
v -7 176 38
v 7 139 17
v 11 140 11
v 30 182 -1
v 25 183 -2
v 22 183 -6
v 24 182 -10
v 10 135 3
v 6 76 -8
v 8 76 -2
v 18 32 6
v 18 13 14
v 30 15 18
v 44 17 17
v 57 19 21
v 11 6 19
v 1 29 18
v -5 75 11
v 3 134 20
v -9 176 47
v -14 180 46
v -12 185 41
v -39 224 27
v -51 247 18
v -54 246 19
v -56 246 19
v -56 245 15
v -51 247 14
v -37 223 23
v -6 182 37
v 11 219 58
v -8 176 43
v 2 75 10
v 12 133 14
v 8 76 4
v 12 134 6
v 32 182 -4
v 30 235 -2
v 28 232 -1
v 24 233 -2
v 21 233 -6
v 23 235 -7
v 29 181 -8
v 8 29 13
v 26 11 20
v 41 15 19
v 52 18 21
v -26 -5 14
v -24 3 21
v -17 5 24
v -10 0 28
v -35 -7 25
v -33 -1 30
v -29 0 34
v -23 -3 34
v -35 -5 40
v -30 -4 40
v -38 -7 33
v -37 -7 38
v 12 216 63
v 6 218 64
v 4 221 60
v 28 234 -7
v 33 263 1
v 34 263 6
v 32 261 8
v 28 261 8
v 26 262 3
v 28 264 1
v -50 247 15
v -55 275 17
v -56 276 20
v -59 275 21
v -61 275 20
v -60 273 17
v -57 275 16
v -64 289 15
v 29 288 5
usemtl c0
f 1 2 3
usemtl c1
f 1 3 4
usemtl c2
f 1 4 5
usemtl c3
f 1 5 6
usemtl c4
f 1 6 7
usemtl c5
f 1 7 2
usemtl c6
f 2 7 8
usemtl c7
f 2 9 10
usemtl c8
f 2 10 3
usemtl c9
f 3 10 11
usemtl c0
f 3 11 12
usemtl c3
f 3 12 4
usemtl c10
f 4 12 13
usemtl c11
f 4 13 14
usemtl c12
f 4 14 5
usemtl c13
f 5 14 15
usemtl c12
f 5 15 16
usemtl c14
f 5 16 6
usemtl c15
f 9 17 18
usemtl c16
f 9 18 10
f 10 18 19
usemtl c17
f 10 19 11
f 11 19 20
usemtl c18
f 11 20 21
usemtl c5
f 11 21 12
usemtl c19
f 12 21 22
usemtl c20
f 12 22 13
usemtl c21
f 13 22 23
usemtl c22
f 13 23 24
usemtl c23
f 13 24 14
usemtl c24
f 14 24 25
f 14 25 15
f 15 25 26
f 26 25 27
usemtl c13
f 26 27 28
usemtl c12
f 26 28 29
usemtl c11
f 26 29 30
usemtl c10
f 30 29 31
usemtl c25
f 30 31 32
usemtl c26
f 32 31 33
usemtl c27
f 32 33 34
usemtl c28
f 17 35 36
f 17 36 18
usemtl c29
f 18 36 37
usemtl c28
f 18 37 19
f 19 37 38
usemtl c16
f 19 38 20
f 20 38 39
usemtl c30
f 20 39 40
usemtl c0
f 20 40 41
usemtl c8
f 20 41 22
usemtl c30
f 20 22 21
usemtl c28
f 35 42 43
usemtl c29
f 35 43 36
usemtl c31
f 36 43 44
f 36 44 37
f 37 44 45
usemtl c29
f 37 45 38
f 38 45 46
usemtl c28
f 38 46 39
f 39 46 47
usemtl c15
f 39 47 48
usemtl c28
f 39 48 49
usemtl c32
f 39 49 40
usemtl c30
f 40 49 50
usemtl c26
f 40 50 51
usemtl c33
f 40 51 52
f 40 52 53
usemtl c21
f 40 53 41
usemtl c34
f 41 53 54
usemtl c35
f 41 54 55
usemtl c0
f 41 55 56
usemtl c7
f 41 56 57
usemtl c36
f 41 57 22
usemtl c37
f 22 57 58
usemtl c0
f 22 58 23
usemtl c1
f 23 58 59
usemtl c38
f 23 59 60
usemtl c39
f 23 60 24
usemtl c40
f 24 60 61
f 24 61 25
f 25 61 27
usemtl c24
f 27 61 62
usemtl c13
f 27 62 63
usemtl c12
f 27 63 28
usemtl c41
f 28 63 64
usemtl c42
f 28 64 65
usemtl c43
f 28 65 29
usemtl c44
f 29 65 66
usemtl c27
f 29 66 31
usemtl c5
f 31 66 67
usemtl c27
f 31 67 33
usemtl c17
f 42 68 69
usemtl c15
f 42 69 43
usemtl c45
f 43 69 70
usemtl c46
f 43 70 44
usemtl c37
f 44 70 71
usemtl c46
f 44 71 45
usemtl c37
f 45 71 72
usemtl c46
f 45 72 46
f 46 72 73
usemtl c29
f 46 73 47
usemtl c45
f 47 73 74
usemtl c30
f 47 74 75
usemtl c7
f 47 75 48
usemtl c8
f 48 75 76
usemtl c7
f 48 76 77
usemtl c28
f 48 77 49
usemtl c29
f 49 77 78
usemtl c46
f 49 78 50
usemtl c36
f 50 78 79
usemtl c47
f 50 79 51
usemtl c48
f 51 79 80
usemtl c23
f 51 80 81
f 51 81 52
usemtl c49
f 52 81 74
f 52 74 82
usemtl c23
f 52 82 53
usemtl c11
f 53 82 83
f 53 83 84
usemtl c50
f 53 84 54
usemtl c47
f 54 84 71
usemtl c8
f 54 71 70
f 54 70 85
usemtl c4
f 54 85 86
usemtl c20
f 54 86 55
usemtl c21
f 55 86 87
usemtl c50
f 55 87 62
usemtl c33
f 55 62 88
usemtl c51
f 55 88 89
usemtl c47
f 55 89 56
usemtl c1
f 56 89 90
usemtl c44
f 56 90 91
usemtl c45
f 56 91 57
usemtl c46
f 57 91 92
f 57 92 58
usemtl c45
f 58 92 93
usemtl c44
f 58 93 59
usemtl c43
f 59 93 94
usemtl c12
f 59 94 95
usemtl c52
f 59 95 60
usemtl c24
f 60 95 88
usemtl c40
f 60 88 61
usemtl c24
f 61 88 62
usemtl c30
f 68 64 96
usemtl c18
f 68 96 69
usemtl c30
f 69 96 85
usemtl c18
f 69 85 70
usemtl c53
f 64 63 96
usemtl c41
f 96 63 87
usemtl c53
f 96 87 85
usemtl c47
f 85 87 86
usemtl c12
f 63 62 87
usemtl c7
f 64 68 97
f 64 97 65
usemtl c16
f 65 97 98
usemtl c17
f 65 98 66
usemtl c16
f 66 98 99
usemtl c7
f 66 99 67
usemtl c16
f 17 9 100
usemtl c17
f 17 100 101
usemtl c16
f 17 101 35
usemtl c17
f 35 101 102
usemtl c16
f 35 102 42
usemtl c17
f 42 102 103
f 42 103 68
usemtl c18
f 101 100 104
f 101 104 105
usemtl c7
f 101 105 102
f 102 105 106
f 102 106 103
usemtl c18
f 103 106 107
f 107 106 108
usemtl c30
f 107 108 109
usemtl c18
f 105 104 110
usemtl c17
f 105 110 111
f 105 111 106
f 106 111 108
usemtl c7
f 100 9 2
usemtl c0
f 71 84 72
usemtl c47
f 72 84 112
usemtl c30
f 72 112 113
usemtl c15
f 72 113 73
usemtl c45
f 73 113 74
usemtl c30
f 74 113 114
usemtl c47
f 74 114 82
usemtl c14
f 82 114 83
usemtl c42
f 83 114 113
usemtl c0
f 83 113 112
usemtl c10
f 83 112 84
usemtl c23
f 88 95 89
f 89 95 115
usemtl c11
f 89 115 90
usemtl c13
f 90 115 116
usemtl c12
f 90 116 117
usemtl c43
f 90 117 91
usemtl c44
f 91 117 118
usemtl c45
f 91 118 92
usemtl c46
f 92 118 119
f 92 119 93
usemtl c45
f 93 119 120
usemtl c44
f 93 120 94
usemtl c43
f 94 120 121
usemtl c12
f 94 121 115
usemtl c13
f 94 115 95
usemtl c47
f 74 81 75
usemtl c54
f 75 81 122
usemtl c41
f 75 122 76
usemtl c54
f 76 122 123
usemtl c41
f 76 123 124
usemtl c8
f 76 124 77
usemtl c7
f 77 124 125
usemtl c28
f 77 125 78
f 78 125 126
usemtl c17
f 78 126 79
usemtl c5
f 79 126 127
usemtl c21
f 79 127 80
usemtl c33
f 80 127 128
usemtl c23
f 80 128 122
usemtl c22
f 80 122 81
f 122 128 123
usemtl c50
f 123 128 129
usemtl c41
f 123 129 124
usemtl c8
f 124 129 125
usemtl c7
f 125 129 126
usemtl c5
f 126 129 127
usemtl c21
f 127 129 128
usemtl c13
f 115 121 116
usemtl c54
f 116 121 130
f 116 130 117
usemtl c55
f 117 130 118
usemtl c7
f 118 130 119
f 119 130 120
usemtl c55
f 120 130 121
