# Made by RuneLite Model-Dumper Plugin
mtllib Object Anvil 2026-07-31_21-18-40.mtl
o Object Anvil 2026-07-31_21-18-40
v -24 16 -36
v 24 16 -36
v 24 0 -36
v -24 0 -36
v -24 16 28
v 24 16 28
v 24 0 28
v -24 0 28
v -3 40 -18
v 3 40 -18
v 4 24 -20
v -4 24 -20
v -7 40 -4
v -8 24 -4
v -3 40 10
v -4 24 12
v 3 40 10
v 4 24 12
v 7 40 -4
v 8 24 -4
v 14 16 -4
v 7 16 -32
v -7 16 -32
v -14 16 -4
v -7 16 24
v 7 16 24
v -10 60 -36
v 10 60 -36
v 10 60 -44
v -10 60 -44
v -10 44 -44
v -10 44 -36
v 10 44 -36
v 10 44 -44
v -16 64 -56
v 16 64 -56
v 16 40 -56
v -16 40 -56
v -16 64 -44
v 16 64 -44
v 16 40 -44
v -16 40 -44
v -4 62 56
v 4 62 56
v 9 62 28
v -9 62 28
v -6 56 56
v 6 56 56
v 13 50 28
v 16 64 28
v -16 64 28
v -13 50 28
v -1 52 56
v 1 52 56
v 3 43 28
v 16 40 28
v 16 64 -36
v -16 64 -36
v -16 40 -36
v -16 40 28
v -3 43 28
v 16 40 -36
v -59 93 59
v 59 93 59
v 59 93 -59
v -59 93 -59
v -59 0 59
v 59 0 59
v 59 0 -59
v -59 0 -59
usemtl c0
f 1 2 3
usemtl c1
f 1 3 4
usemtl c2
f 1 4 5
usemtl c3
f 1 5 2
usemtl c4
f 2 5 6
usemtl c5
f 2 6 7
usemtl c6
f 2 7 3
usemtl c7
f 3 7 4
usemtl c8
f 4 7 8
usemtl c9
f 4 8 5
usemtl c10
f 5 8 6
usemtl c11
f 6 8 7
usemtl c12
f 9 10 11
usemtl c13
f 9 11 12
usemtl c14
f 9 12 13
usemtl c15
f 13 12 14
usemtl c16
f 13 14 15
usemtl c17
f 15 14 16
usemtl c18
f 15 16 17
usemtl c19
f 17 16 18
usemtl c20
f 17 18 19
usemtl c21
f 19 18 20
usemtl c22
f 19 20 10
f 10 20 11
usemtl c23
f 11 20 21
usemtl c24
f 11 21 22
usemtl c25
f 11 22 12
usemtl c26
f 12 22 23
usemtl c27
f 12 23 14
usemtl c28
f 14 23 24
usemtl c29
f 14 24 16
usemtl c30
f 16 24 25
usemtl c31
f 16 25 18
usemtl c32
f 18 25 26
usemtl c33
f 18 26 20
usemtl c34
f 20 26 21
usemtl c26
f 27 28 29
usemtl c35
f 27 29 30
usemtl c36
f 27 30 31
usemtl c18
f 27 31 32
usemtl c37
f 29 28 33
usemtl c12
f 29 33 34
usemtl c0
f 35 36 37
usemtl c38
f 35 37 38
usemtl c39
f 35 38 39
usemtl c3
f 35 39 36
usemtl c4
f 36 39 40
usemtl c40
f 36 40 41
usemtl c37
f 36 41 37
usemtl c15
f 40 39 42
usemtl c41
f 40 42 41
usemtl c42
f 39 38 42
usemtl c43
f 43 44 45
usemtl c44
f 43 45 46
usemtl c45
f 43 46 47
usemtl c42
f 43 47 48
usemtl c46
f 43 48 44
usemtl c47
f 44 48 49
usemtl c4
f 44 49 45
usemtl c48
f 45 49 50
usemtl c19
f 45 50 51
usemtl c49
f 45 51 46
usemtl c50
f 46 51 52
usemtl c51
f 46 52 47
f 47 52 53
usemtl c28
f 47 53 48
usemtl c52
f 48 53 54
usemtl c39
f 48 54 55
usemtl c53
f 48 55 49
f 49 55 56
usemtl c32
f 49 56 50
usemtl c54
f 50 56 57
usemtl c32
f 50 57 51
usemtl c54
f 51 57 58
usemtl c46
f 51 58 59
usemtl c36
f 51 59 60
usemtl c30
f 51 60 52
usemtl c29
f 52 60 61
usemtl c55
f 52 61 53
usemtl c0
f 58 57 62
usemtl c38
f 58 62 59
usemtl c1
f 57 56 62
usemtl c56
f 60 56 61
usemtl c57
f 61 56 55
usemtl c58
f 63 64 65
f 63 65 66
f 63 66 67
f 63 67 68
f 63 68 64
f 64 68 69
f 64 69 65
f 65 69 70
f 65 70 66
f 66 70 67
f 67 70 69
f 67 69 68
