# Made by RuneLite Model-Dumper Plugin
mtllib Object Counter 2026-07-31_19-51-13.mtl
o Object Counter 2026-07-31_19-51-13
v 43 0 106
v 43 104 106
v -43 104 106
v -43 0 106
v -43 104 0
v -43 0 0
v -43 104 -106
v -43 0 -106
v 43 104 -106
v 43 0 -106
v 43 104 0
v 43 0 0
v -43 120 -106
v -43 120 0
v 58 120 121
v 58 120 -121
v -58 120 -121
v -58 120 121
v 58 96 121
v 58 96 -121
v -58 96 121
v -58 96 -121
v 43 120 -106
v 43 120 106
v 43 120 0
v -43 120 106
v 58 -24 121
v -58 -24 -121
v 58 -40 121
v 58 -40 -121
v -58 -40 121
v 43 0 106
v 43 0 106
v 43 0 106
v 43 0 106
v 43 0 106
v 43 0 106
usemtl c0
f 1 2 3
f 1 3 4
f 4 3 5
f 4 5 6
f 6 5 7
f 6 7 8
f 8 7 9
f 8 9 10
f 10 9 11
f 10 11 12
f 12 11 2
f 12 2 1
usemtl c1
f 13 8 14
usemtl c0
f 15 16 17
f 15 17 18
f 15 18 19
f 15 19 20
f 15 20 16
usemtl c1
f 15 16 18
usemtl c0
f 19 18 21
f 21 18 17
f 21 17 22
f 22 17 16
f 22 16 20
